<svg xmlns="http://www.w3.org/2000/svg" width="10143" height="3291" viewBox="0 0 566.566 183.828">
  <metadata><?xpacket begin="﻿" id="W5M0MpCehiHzreSzNTczkc9d"?>
<x:xmpmeta xmlns:x="adobe:ns:meta/" x:xmptk="Adobe XMP Core 6.0-c002 79.164460, 2020/05/12-16:04:17        ">
   <rdf:RDF xmlns:rdf="http://www.w3.org/1999/02/22-rdf-syntax-ns#">
      <rdf:Description rdf:about=""
            xmlns:xmp="http://ns.adobe.com/xap/1.0/">
         <xmp:CreatorTool>Adobe Photoshop 21.2 (Windows)</xmp:CreatorTool>
      </rdf:Description>
   </rdf:RDF>
</x:xmpmeta>
                                                                                                    
                                                                                                    
                                                                                                    
                                                                                                    
                                                                                                    
                                                                                                    
                                                                                                    
                                                                                                    
                                                                                                    
                                                                                                    
                                                                                                    
                                                                                                    
                                                                                                    
                                                                                                    
                                                                                                    
                                                                                                    
                                                                                                    
                                                                                                    
                                                                                                    
                                                                                                    
                           
<?xpacket end="w"?></metadata>
<defs>
    <style>
      .cls-1 {
        fill: #fff;
      }

      .cls-1, .cls-2 {
        fill-rule: evenodd;
      }

      .cls-2 {
        fill: #fffefe;
      }
    </style>
  </defs>
  <g id="Artboard_1" data-name="Artboard 1">
    <path id="shabx-store" class="cls-1" d="M269.78,129.529a21.178,21.178,0,0,0,.239,2.842,29,29,0,0,0,.852,4.391,17.825,17.825,0,0,0,1.649,4.012,13.671,13.671,0,0,0,1.622,2.4,8.756,8.756,0,0,0,1.783,1.58,9.825,9.825,0,0,0,2.1,1.042,22.332,22.332,0,0,0,2.527.727,10.631,10.631,0,0,0,6.2-.79,11.281,11.281,0,0,0,4.761-4.77,27.528,27.528,0,0,0,2.634-6.854,44.084,44.084,0,0,0,.984-7.487q0.159-3.472,0-6.917a55.956,55.956,0,0,0-.745-6.855,22.1,22.1,0,0,0-1.17-4.422q-0.8-2.085-1.809-4.106a16.249,16.249,0,0,0-2-3.064,7.9,7.9,0,0,0-2.687-2.053,18.138,18.138,0,0,1-2.261-1.232,14.448,14.448,0,0,1-2.154-1.674,10.5,10.5,0,0,1-1.756-2.148,8.4,8.4,0,0,1-1.064-2.653,35.085,35.085,0,0,1-.612-4.075,23.914,23.914,0,0,1-.026-4.075,14.985,14.985,0,0,1,.239-1.674,10.46,10.46,0,0,1,.532-1.864,5.352,5.352,0,0,1,.878-1.516,1.617,1.617,0,0,1,1.277-.632,1.164,1.164,0,0,1,.984.6,5.946,5.946,0,0,1,.665,1.39,15.838,15.838,0,0,1,.452,1.643,13.136,13.136,0,0,1,.239,1.358q0.265,1.769.532,3.506t0.479,3.506a1.963,1.963,0,0,0,.293.758,0.577,0.577,0,0,0,.665.126,17.891,17.891,0,0,1,2.793-.284q1.408-.031,2.793-0.158a2.694,2.694,0,0,0,.452-0.032c0.124-.021.274-0.052,0.452-0.095a2.107,2.107,0,0,0,1.117-.695,2.4,2.4,0,0,0,.32-1.39,41.782,41.782,0,0,0-.506-8.339,37.643,37.643,0,0,0-2.208-7.9A19.6,19.6,0,0,0,289.73,68.5a13.914,13.914,0,0,0-2.128-2.685,10.006,10.006,0,0,0-2.633-1.864,7,7,0,0,0-3.086-.7,8.478,8.478,0,0,0-4.2,1.011,10.2,10.2,0,0,0-3.139,2.748,16.553,16.553,0,0,0-2.234,4.043,30.178,30.178,0,0,0-1.436,4.833,49.316,49.316,0,0,0-1.144,11.656,96.511,96.511,0,0,0,.984,11.656,12.014,12.014,0,0,0,2.1,5.654,10.56,10.56,0,0,0,4.443,3.506l1.755,0.758,1.969,0.948a6.368,6.368,0,0,1,2.819,3.411,19.607,19.607,0,0,1,.9,4.106q0.159,1.77.266,3.507a23.23,23.23,0,0,1-.054,3.506q-0.159,1.453-.319,2.906a9.382,9.382,0,0,1-.745,2.78q-0.638,1.453-1.542,1.453a1.216,1.216,0,0,1-.931-0.443,4.395,4.395,0,0,1-.692-1.042,8.764,8.764,0,0,1-.5-1.295q-0.214-.694-0.32-1.2a29.22,29.22,0,0,1-.372-3.064q-0.108-1.548-.213-3.064a2.862,2.862,0,0,0-.213-1.138,1.572,1.572,0,0,0-.9-0.442,3.415,3.415,0,0,0-1.3-.126c-0.444.042-.878,0.106-1.3,0.189q-1.17.254-2.287,0.506t-2.288.442a2.973,2.973,0,0,0-.931.253,1.919,1.919,0,0,0-.346,1.011,8.744,8.744,0,0,0-.159,2.148q0.051,1.074.106,1.958Q269.754,128.077,269.78,129.529Zm56.63-13.741q0.265,5.781.373,11.719,0.105,3.285.133,6.539t0.08,6.538q0.051,0.822.079,1.58a10.109,10.109,0,0,0,.187,1.579,2.107,2.107,0,0,0,1.755,2.021,11.747,11.747,0,0,0,1.7.253,12.235,12.235,0,0,0,1.755,0,3.217,3.217,0,0,0,2.314-.979,4.45,4.45,0,0,0,.772-2.748q0.1-2.968,0-6-0.267-5.558-.479-10.992T334.656,114.3a9.048,9.048,0,0,1-.026-1.2q0.025-.568.026-1.2a0.983,0.983,0,0,1,.639-1.011,10.363,10.363,0,0,1,2.234-.379,8.592,8.592,0,0,1,2.288.189,0.687,0.687,0,0,1,.585.632c0.035,0.3.071,0.569,0.106,0.821a5.531,5.531,0,0,1,.054.758q0.265,6.444.319,12.888l0.159,9.666q0,1.264.027,2.432t0.027,2.432q0.051,0.759.106,1.517t0.16,1.453q0.211,2.085,1.915,2.148a15.646,15.646,0,0,0,2.208.094,14.615,14.615,0,0,0,2.154-.221,1.836,1.836,0,0,0,1.091-.474,3.312,3.312,0,0,0,.745-1.01,5.16,5.16,0,0,0,.425-1.327c0.088-.484.151-0.937,0.186-1.358q0.426-2.844.692-5.718t0.372-5.843q0.16-5.244.32-10.393t0.053-10.392q-0.108-4.548-.186-9.065t-0.027-9.066q0.107-6.065.106-12t0.107-11.94a3.913,3.913,0,0,0-.532-2.369,2.083,2.083,0,0,0-1.915-.537,8.059,8.059,0,0,0-.985.063l-0.984.126-2.021.316a4.5,4.5,0,0,0-1.118.221,1.64,1.64,0,0,0-1.09,1.2q-0.134.474-.293,1.3a4.172,4.172,0,0,0-.106.821q-0.639,5.749-.9,11.5t0,11.561q0.053,1.011.054,1.99v1.99a2.75,2.75,0,0,1-.16,1.2,1.948,1.948,0,0,1-1.011.505l-1.915.379a10.183,10.183,0,0,1-1.676.19,1.171,1.171,0,0,1-.9-0.316,1.763,1.763,0,0,1-.373-1.011,19.192,19.192,0,0,1-.079-2.022q-0.108-4.232.106-8.434t0.319-8.434q0.107-2.653.027-5.212t-0.24-5.149a3.7,3.7,0,0,0-.638-2.211,2.881,2.881,0,0,0-1.862-.695q-0.8-.062-1.6-0.095a13.453,13.453,0,0,1-1.6-.158H328.7a2.15,2.15,0,0,0-1.33.537,2.64,2.64,0,0,0-.479,1.485,10.843,10.843,0,0,0-.026,1.327q0.026,0.632.026,1.327,0.052,2.023.08,4.075t-0.08,4.138q-0.426,6.95-.665,13.867t-0.08,13.993Q326.144,110.009,326.41,115.788Zm82.673-4.138V81.389a28.761,28.761,0,0,0-.718-6.507,18.947,18.947,0,0,0-2.421-5.812,14.263,14.263,0,0,0-4.15-4.58,8.29,8.29,0,0,0-4.468-1.3,11.926,11.926,0,0,0-3.778.6,7.069,7.069,0,0,0-3.192,2.243,20.633,20.633,0,0,0-3.936,7.581,32.085,32.085,0,0,0-1.224,8.844q-0.107,7.455-.053,14.815t0.159,14.814q0.106,5.181.293,10.329t0.612,10.266a24.73,24.73,0,0,1-.053,4.3,31.772,31.772,0,0,0-.213,3.7q0,1.864.106,3.7a1.909,1.909,0,0,0,.319,1.232,1.709,1.709,0,0,0,1.118.157l1.915-.126q0.957-.063,1.968-0.126a2.756,2.756,0,0,0,2.181-.853,5.433,5.433,0,0,0,.479-2.748q-0.054-.631-0.053-1.232t-0.053-1.169l-0.213-4.927q-0.426-5.748-.559-11.53t-0.239-11.529a2.458,2.458,0,0,1,.133-1.074,1.429,1.429,0,0,1,.984-0.19q1.6-.062,3.166-0.063h3.112a2.234,2.234,0,0,1,1.011.126,2.277,2.277,0,0,1,.159,1.2v5.148q0,1.929-.053,3.886V136.1q-0.054,1.959-.053,3.885v3.885a2.651,2.651,0,0,0,.319,1.58,1.733,1.733,0,0,0,1.33.379q1.064,0.061,2.128.031t2.128-.031a1.824,1.824,0,0,0,1.383-.379,3.006,3.006,0,0,0,.373-1.643q0.159-2.843.159-5.812V111.65h-0.106Zm-7.448-15.667a2,2,0,0,1-.133,1.011,2.067,2.067,0,0,1-.825.253l-3.3.253-3.3.253a1.506,1.506,0,0,1-.957-0.095,2.325,2.325,0,0,1-.107-1.232q0.052-1.706.187-4.391t0.425-5.528q0.292-2.843.718-5.37a13.461,13.461,0,0,1,1.118-3.854,1.837,1.837,0,0,1,.611-0.916,1.339,1.339,0,0,1,.985-0.095,4.035,4.035,0,0,1,3.032,2.78,10.18,10.18,0,0,1,.745,2.843q0.159,1.454.266,2.969,0.159,1.833.292,3.6t0.24,3.6v3.917Zm48.571-32.472a0.859,0.859,0,0,0-.905-0.253l-2.447.253-2.447.253a1.447,1.447,0,0,0-.639.221,0.925,0.925,0,0,0-.266.663,11.912,11.912,0,0,1-.159,1.263,6.8,6.8,0,0,0-.107,1.264q-0.106,1.644-.053,3.222t0.107,3.222q0.159,13.71.133,27.291T443.29,128.2q-0.054,4.107.053,8.118t-0.107,8.118a1.745,1.745,0,0,0,.107,1.042,2.028,2.028,0,0,0,.9.284q1.329,0.063,2.66.032a12.517,12.517,0,0,1,2.66.221,1.343,1.343,0,0,1,.266.032,0.262,0.262,0,0,0,.266-0.095q0.372-.507.665-0.284a6.452,6.452,0,0,1,.559.474,4.809,4.809,0,0,0,1.888,1.1,5.341,5.341,0,0,0,2.1.158,6.35,6.35,0,0,0,2.58-.663,11.7,11.7,0,0,0,2.314-1.548,8.277,8.277,0,0,0,1.782-2.053q0.719-1.168,1.463-2.433a23.352,23.352,0,0,0,2.315-5.685,30.7,30.7,0,0,0,.931-6.191q0.105-3.413.106-6.7t-0.16-6.7q-0.107-2.4-.4-4.769a17.8,17.8,0,0,0-1.2-4.58,5.1,5.1,0,0,1-.133-0.79,1.272,1.272,0,0,1,.187-0.727,19.482,19.482,0,0,0,1.356-4.927q0.345-2.526.452-5.18,0.16-3.222.16-6.444t-0.106-6.444a29.1,29.1,0,0,0-.9-6.412,24.8,24.8,0,0,0-2.394-5.907l-1.33-2.338a8.1,8.1,0,0,0-3.112-3.348,9.538,9.538,0,0,0-4.123-1.137,3.592,3.592,0,0,0-1.7.284,7.434,7.434,0,0,0-1.543.916c-0.178.126-.346,0.253-0.506,0.379l-0.558.442A4.339,4.339,0,0,0,450.206,63.511Zm1.862,19.205a12.121,12.121,0,0,1,.239-1.579,9.99,9.99,0,0,1,.5-1.674,4.625,4.625,0,0,1,.825-1.358,1.605,1.605,0,0,1,1.25-.569,1.128,1.128,0,0,1,.825.347,3.069,3.069,0,0,1,.585.853,6.735,6.735,0,0,1,.4,1.074,6.948,6.948,0,0,1,.213,1.011,44.476,44.476,0,0,1,.638,6.823q0.052,3.411-.159,6.823a8.547,8.547,0,0,1-.24,1.3,6.488,6.488,0,0,1-.532,1.39,4.341,4.341,0,0,1-.8,1.106,1.441,1.441,0,0,1-1.037.442,1.4,1.4,0,0,1-1.117-.6,5.475,5.475,0,0,1-.8-1.39,9.845,9.845,0,0,1-.506-1.674,13.3,13.3,0,0,1-.239-1.453,25.874,25.874,0,0,1-.16-2.843q0-1.389.107-2.717a43.88,43.88,0,0,1,0-5.307h0ZM451.7,119.294q0-1.326.107-2.716a14.034,14.034,0,0,1,.239-1.485,10.73,10.73,0,0,1,.5-1.737,5.02,5.02,0,0,1,.825-1.422,1.475,1.475,0,0,1,1.144-.6,1.445,1.445,0,0,1,1.037.442,4.062,4.062,0,0,1,.772,1.074,8.606,8.606,0,0,1,.532,1.327,4.381,4.381,0,0,1,.212,1.263q0.266,3.54.187,7.013a48.758,48.758,0,0,1-.665,6.949,5.327,5.327,0,0,1-.213.948,6.654,6.654,0,0,1-.4.979,3.018,3.018,0,0,1-.559.79,1.088,1.088,0,0,1-.8.316,1.4,1.4,0,0,1-.9-0.348,3.473,3.473,0,0,1-.745-0.853,6.721,6.721,0,0,1-.559-1.105,7.759,7.759,0,0,1-.345-1.043,15.357,15.357,0,0,1-.32-2.558q-0.052-1.294,0-2.559c0-.336.009-0.663,0.027-0.979s0.027-.684.027-1.106Q451.694,120.621,451.7,119.294Zm56.232-33.925a3.909,3.909,0,0,0-.159-0.695q-0.958-4.549-1.916-9t-2.021-9q-0.213-.884-0.346-1.327a1.467,1.467,0,0,0-.372-0.663,1.073,1.073,0,0,0-.665-0.253c-0.285-.021-0.692-0.032-1.224-0.032q-1.118,0-2.261-.032T496.7,64.4a1.367,1.367,0,0,0-1.144.347,1.939,1.939,0,0,0-.026,1.358,2.467,2.467,0,0,1,.106.632l0.319,1.327a4.294,4.294,0,0,0,.107.632q1.807,9.35,3.644,18.573t3.8,18.511a6.714,6.714,0,0,1,.133,1.516,8.729,8.729,0,0,1-.187,1.453q-1.383,6.381-2.713,12.667t-2.66,12.666a12.1,12.1,0,0,1-.266,1.3,12.457,12.457,0,0,0-.266,1.295l-1.117,5.244c-0.071.421-.151,0.843-0.239,1.263s-0.187.864-.293,1.327a1.5,1.5,0,0,0,0,.821,0.56,0.56,0,0,0,.585.127,5.807,5.807,0,0,1,1.6-.032q0.8,0.094,1.6.221,0.531,0.126,1.038.221a2.749,2.749,0,0,0,1.09-.031,1.843,1.843,0,0,0,.958-0.443,2.119,2.119,0,0,0,.479-1.074q0.266-1.137.5-2.274t0.5-2.211l1.916-9.034q0.265-1.137.5-2.243t0.5-2.242c0.035-.211.062-0.421,0.08-0.632a0.636,0.636,0,0,1,.4-0.506,0.6,0.6,0,0,1,.053.222,0.576,0.576,0,0,0,.054.221l0.159,0.758a3.089,3.089,0,0,1,.107.442q0.9,4.233,1.808,8.434t1.809,8.5a2.508,2.508,0,0,0,.692,1.421,2.463,2.463,0,0,0,1.223.537,30.124,30.124,0,0,0,3.352.19q0.692,0,1.357.031a6.582,6.582,0,0,0,1.409-.094,1.275,1.275,0,0,0,.639-0.316,1.119,1.119,0,0,0,.053-0.821,15.457,15.457,0,0,1-.426-1.8q-0.159-.915-0.372-1.864-1.863-8.844-3.724-17.562T512.13,105.9a8.713,8.713,0,0,1-.186-1.485,6.06,6.06,0,0,1,.133-1.484q0.372-1.706.718-3.38t0.718-3.38l2.82-13.456q0.372-1.642.718-3.348t0.718-3.348l2.075-10.045A1.885,1.885,0,0,0,519.9,65a1.059,1.059,0,0,0-.691-0.221q-1.172-.062-2.341-0.095t-2.341-.032a2.031,2.031,0,0,0-1.569.505,3.07,3.07,0,0,0-.559,1.769q-0.106.7-.239,1.39t-0.293,1.39q-0.106.443-.186,0.821c-0.053.253-.116,0.527-0.186,0.821l-0.745,3.285c-0.072.3-.133,0.569-0.186,0.821s-0.116.527-.187,0.821q-0.531,2.4-1.037,4.864t-1.091,5.117A2.794,2.794,0,0,1,507.927,85.369Zm55.86,12.825a3.085,3.085,0,0,0-.585-0.063h-12.4a1.275,1.275,0,0,0-.957.253,1.55,1.55,0,0,0-.054,1.137,24.587,24.587,0,0,1,.213,5.181q-0.107,1.2-.239,2.4t-0.24,2.464a1.372,1.372,0,0,0,.133.916,0.87,0.87,0,0,0,.772.158,8.383,8.383,0,0,0,1.037-.063c0.337-.041.7-0.084,1.091-0.126q2.606-.126,5.213-0.221a40.313,40.313,0,0,1,5.267.157,1.382,1.382,0,0,0,1.144-.157,2.04,2.04,0,0,0,.4-1.169,35.678,35.678,0,0,0,.293-4.959q-0.029-2.5.079-4.96,0-.82-0.585-0.821C564.194,98.279,564,98.236,563.787,98.194Zm31.147,31.335a21.343,21.343,0,0,0,.24,2.842,29,29,0,0,0,.851,4.391,17.871,17.871,0,0,0,1.649,4.012,13.616,13.616,0,0,0,1.623,2.4,8.752,8.752,0,0,0,1.782,1.58,9.825,9.825,0,0,0,2.1,1.042,22.453,22.453,0,0,0,2.527.727,10.631,10.631,0,0,0,6.2-.79,11.288,11.288,0,0,0,4.762-4.77,27.524,27.524,0,0,0,2.633-6.854,43.983,43.983,0,0,0,.984-7.487q0.16-3.472,0-6.917a55.761,55.761,0,0,0-.745-6.855,22.037,22.037,0,0,0-1.17-4.422q-0.8-2.085-1.809-4.106a16.151,16.151,0,0,0-1.995-3.064,7.887,7.887,0,0,0-2.686-2.053,18.138,18.138,0,0,1-2.261-1.232,14.4,14.4,0,0,1-2.155-1.674,10.567,10.567,0,0,1-1.756-2.148,8.4,8.4,0,0,1-1.064-2.653,34.869,34.869,0,0,1-.611-4.075,24.018,24.018,0,0,1-.027-4.075,15.469,15.469,0,0,1,.239-1.674,10.46,10.46,0,0,1,.532-1.864,5.375,5.375,0,0,1,.878-1.516,1.618,1.618,0,0,1,1.277-.632,1.163,1.163,0,0,1,.984.6,5.946,5.946,0,0,1,.665,1.39,15.593,15.593,0,0,1,.452,1.643,13.469,13.469,0,0,1,.24,1.358q0.265,1.769.532,3.506t0.479,3.506a1.948,1.948,0,0,0,.292.758,0.577,0.577,0,0,0,.665.126,17.891,17.891,0,0,1,2.793-.284q1.41-.031,2.793-0.158a2.686,2.686,0,0,0,.452-0.032q0.186-.031.453-0.095a2.111,2.111,0,0,0,1.117-.695,2.4,2.4,0,0,0,.319-1.39,41.782,41.782,0,0,0-.5-8.339,37.7,37.7,0,0,0-2.208-7.9,19.689,19.689,0,0,0-1.57-3.159,13.914,13.914,0,0,0-2.128-2.685,9.989,9.989,0,0,0-2.633-1.864,7,7,0,0,0-3.086-.7,8.474,8.474,0,0,0-4.2,1.011,10.191,10.191,0,0,0-3.139,2.748,16.555,16.555,0,0,0-2.235,4.043,30.281,30.281,0,0,0-1.436,4.833,49.368,49.368,0,0,0-1.144,11.656,96.714,96.714,0,0,0,.984,11.656,12.025,12.025,0,0,0,2.1,5.654,10.551,10.551,0,0,0,4.442,3.506l1.756,0.758,1.968,0.948a6.374,6.374,0,0,1,2.82,3.411,19.6,19.6,0,0,1,.9,4.106q0.159,1.77.266,3.507a23.229,23.229,0,0,1-.053,3.506q-0.161,1.453-.319,2.906a9.412,9.412,0,0,1-.745,2.78q-0.639,1.453-1.543,1.453a1.216,1.216,0,0,1-.931-0.443,4.425,4.425,0,0,1-.692-1.042,8.764,8.764,0,0,1-.5-1.295q-0.213-.694-0.319-1.2a29.222,29.222,0,0,1-.373-3.064q-0.107-1.548-.212-3.064a2.88,2.88,0,0,0-.213-1.138,1.576,1.576,0,0,0-.9-0.442,3.413,3.413,0,0,0-1.3-.126c-0.444.042-.878,0.106-1.3,0.189q-1.171.254-2.288,0.506t-2.288.442a2.973,2.973,0,0,0-.931.253,1.922,1.922,0,0,0-.345,1.011,8.7,8.7,0,0,0-.16,2.148q0.052,1.074.106,1.958Q594.907,128.077,594.934,129.529Zm59.77-8.4q-0.159,4.866-.266,9.666-0.052,2.654-.053,5.212v5.212q0.053,2.716.958,3.727a3.913,3.913,0,0,0,3.139.948q1.223-.064,2.394-0.221t2.34-.411a2.325,2.325,0,0,0,1.357-.6,3.692,3.692,0,0,0,.559-1.611,13.159,13.159,0,0,0,.239-2.243q0.026-1.168.027-2.306,0.052-8.97-.054-17.815t-0.425-17.815q-0.213-5.5-.346-10.93T664.014,81.01a2.487,2.487,0,0,1,.054-1.263,2.174,2.174,0,0,1,.957-0.569,14.248,14.248,0,0,1,2.687-.853,24.078,24.078,0,0,1,2.74-.411,1.427,1.427,0,0,0,1.489-1.769q0-2.715-.026-5.37t-0.08-5.37a1.723,1.723,0,0,0-1.437-1.9,10.867,10.867,0,0,0-2.5-.316q-4.257.064-8.459,0.221t-8.4.411q-0.48.064-.931,0.095a5.091,5.091,0,0,0-.931.158,1.544,1.544,0,0,0-1.064.505,3.017,3.017,0,0,0-.373,1.327q-0.054.632-.08,1.2t-0.079,1.2q-0.108,1.769-.133,3.506a34.424,34.424,0,0,0,.133,3.569,2.982,2.982,0,0,0,.744,2.116,2.356,2.356,0,0,0,1.916.347l1.17-.253a11.466,11.466,0,0,1,1.17-.19,1.554,1.554,0,0,1,1.118.095,2.616,2.616,0,0,1,.532,1.169,6.827,6.827,0,0,1,.319,1.674q0.053,0.853.106,1.737,0.266,5.56.213,11.119t0.106,11.119q0.107,1.833.08,3.569t-0.026,3.19Q654.864,116.262,654.7,121.126Zm70.968-26.375q0-3.885-.053-7.8,0-2.969-.159-6.381a41.365,41.365,0,0,0-.852-6.665,26.912,26.912,0,0,0-2.021-6.033,12.208,12.208,0,0,0-3.671-4.549,6.076,6.076,0,0,0-5.054-1.264,7.15,7.15,0,0,0-3.3,1.453,13.5,13.5,0,0,0-2.607,2.78,21.211,21.211,0,0,0-2.58,4.738,33.951,33.951,0,0,0-1.57,5.275q-0.585,2.748-.9,5.559t-0.479,5.591q-0.374,5.624-.239,11.182t-0.133,11.182q-0.215,3.6-.16,7.107T702,124.032a74.793,74.793,0,0,0,.479,7.55,26.711,26.711,0,0,0,1.649,6.791,15.368,15.368,0,0,0,3.485,5.338,13.221,13.221,0,0,0,6.038,3.254,5.646,5.646,0,0,0,1.383.189,5.8,5.8,0,0,0,3.059-.853,10.445,10.445,0,0,0,2.581-2.242A18.134,18.134,0,0,0,722.746,141a19.864,19.864,0,0,0,1.437-3.317,11.745,11.745,0,0,0,.585-2.5q0.159-1.294.319-2.559,0.585-5.5.745-10.929t0.213-10.929q0-2.022-.08-4.107t-0.133-4.106Q725.673,98.636,725.672,94.751Zm-8.139,19.079q0.1,4.013-.053,7.991-0.054,1.391-.187,2.748a15.549,15.549,0,0,1-.5,2.685c-0.106.379-.249,0.8-0.426,1.264a7.407,7.407,0,0,1-.665,1.326,4.24,4.24,0,0,1-.9,1.043,1.7,1.7,0,0,1-1.091.41,1.734,1.734,0,0,1-1.409-.852,8.5,8.5,0,0,1-1.038-1.99,17.322,17.322,0,0,1-.691-2.338q-0.267-1.2-.373-1.9-0.585-4.8-.718-9.6t0.08-9.729q0.106-3.094.186-6.128t0.239-6.128a9.764,9.764,0,0,0,.054-1.011V90.613l0.159-3.98q0.053-1.137.107-2.18a10.249,10.249,0,0,1,.292-1.99,6.313,6.313,0,0,1,.745-1.769,6.614,6.614,0,0,1,1.41-1.579,2.115,2.115,0,0,1,1.117-.505,1.757,1.757,0,0,1,1.33,1.137,10.436,10.436,0,0,1,.878,2.78q0.345,1.769.558,3.727t0.293,3.822q0.08,1.864.133,3.064,0.106,3.222.239,6.317t0.027,5.686Q717.426,109.819,717.533,113.83Zm45.619-49.814a2.422,2.422,0,0,0-1.251-.063,5.018,5.018,0,0,1-.984.158q-0.505.033-.984,0.095l-2.022.189a1.95,1.95,0,0,0-1.117.284,2.5,2.5,0,0,0-.159,1.421q0.211,5.434.106,10.771t-0.053,10.771q0.106,11.625.133,23.123t-0.133,23.122q-0.054,2.463-.053,4.959v4.959a2.944,2.944,0,0,0,.452,1.769,2.19,2.19,0,0,0,1.516.505,7.136,7.136,0,0,0,2.314-.126,21.151,21.151,0,0,1,2.315-.379,1.6,1.6,0,0,0,1.329-1.643q0.052-.378.08-0.758t0.027-.821q0.052-3.852,0-7.707,0-4.359-.053-8.687t-0.107-8.686v-0.916a1.84,1.84,0,0,1,.32-0.98c0.07,0.253.133,0.464,0.186,0.632s0.114,0.358.186,0.569q1.755,6.822,3.485,13.614t3.75,13.551a2.866,2.866,0,0,0,.559,1.169,1.982,1.982,0,0,0,1.2.347q0.637,0.065,1.3.1c0.443,0.022.878,0.031,1.3,0.031,0.389,0.043.771,0.073,1.143,0.095a7.11,7.11,0,0,0,1.144-.031q1.17-.063.9-1.39-0.107-.694-0.265-1.327c-0.107-.42-0.213-0.842-0.32-1.263q-1.649-7.264-3.484-14.341t-3.538-14.278a3.543,3.543,0,0,1-.186-1.326,2.069,2.069,0,0,1,.984-0.7,10.753,10.753,0,0,0,3.378-2.812,13.529,13.529,0,0,0,2.048-3.727,20.2,20.2,0,0,0,1.038-4.391q0.291-2.336.452-4.738,0.211-6.444,0-12.761a33.308,33.308,0,0,0-.745-6,22.342,22.342,0,0,0-2.022-5.559q-0.8-1.578-1.622-2.969a13.034,13.034,0,0,0-1.836-2.432,8.158,8.158,0,0,0-2.314-1.674,6.949,6.949,0,0,0-3.059-.632,5.91,5.91,0,0,0-2.553.505,6.045,6.045,0,0,0-.984.727,5.209,5.209,0,0,1-1.038.727A1.5,1.5,0,0,0,763.152,64.016Zm7.395,28.208q0.025,1.232-.027,2.5a6.06,6.06,0,0,1-.186,1.358,7.6,7.6,0,0,1-.532,1.516,4.735,4.735,0,0,1-.825,1.232,1.492,1.492,0,0,1-1.117.505,1.358,1.358,0,0,1-1.064-.6,6.006,6.006,0,0,1-.825-1.421,9.5,9.5,0,0,1-.532-1.674,6.9,6.9,0,0,1-.186-1.421q-0.159-2.843-.133-5.654t0.133-5.654a6.855,6.855,0,0,1,1.064-3.475,1.965,1.965,0,0,1,1.649-1.2q1.063,0,1.7,1.706a14.271,14.271,0,0,1,.585,2.717q0.159,1.39.266,2.78,0.053,1.075.027,2.148t-0.027,2.148Q770.52,90.993,770.547,92.224ZM823.241,78.23a10.3,10.3,0,0,1,2.766-.253q1.383,0.064,2.766,0h0.639a4.1,4.1,0,0,0,.691-0.063h2.554a4.23,4.23,0,0,1,.692-0.063h0.638a2.24,2.24,0,0,0,1.543-.6,3.452,3.452,0,0,0,.425-1.864q0.052-.315.08-0.537a4.512,4.512,0,0,0,.027-0.537q0.052-2.211.106-4.359t0.053-4.3a2.3,2.3,0,0,0-.292-1.264,1.838,1.838,0,0,0-.772-0.663,2.854,2.854,0,0,0-1.037-.253q-0.558-.031-1.091-0.032h-3.192a27.035,27.035,0,0,1-3.192-.19q-2.927-.315-5.825-0.632A38.475,38.475,0,0,0,815,62.437a10.351,10.351,0,0,0-1.517.189,1.653,1.653,0,0,0-.877.474,1.911,1.911,0,0,0-.426,1.011,11.4,11.4,0,0,0-.106,1.737q0,3.6.079,7.076T812.122,80q-0.267,8.466-.426,16.8t-0.159,16.8q0,6.129-.054,12.193t-0.532,12.193a17.864,17.864,0,0,0-.079,2.211q0.026,1.137.133,2.211a4.224,4.224,0,0,0,.532,1.832,2.716,2.716,0,0,0,1.117,1.043,4.463,4.463,0,0,0,1.489.442,13.561,13.561,0,0,0,1.6.095H832.6q0.637,0,1.277-.064a5.847,5.847,0,0,0,1.223-.252,2.63,2.63,0,0,0,1.383-.916,2.756,2.756,0,0,0,.373-1.738q0-.441-0.027-0.821c-0.018-.253-0.045-0.5-0.08-0.758q-0.106-1.769-.239-3.475t-0.293-3.411a2.9,2.9,0,0,0-2.34-2.843,5.779,5.779,0,0,0-2.235-.189l-2.394.189-3.378.253q-1.676.127-3.378,0.316a2.083,2.083,0,0,1-1.117-.095,2.527,2.527,0,0,1-.32-1.358V130.35l-0.053-.569v-0.252q-0.159-4.17-.213-8.245t0.213-8.244a3.585,3.585,0,0,1,.186-1.232,1.743,1.743,0,0,1,.985-0.411,18.339,18.339,0,0,1,2.128-.252q1.064-.063,2.128-0.19a1.851,1.851,0,0,0,1.409-.569,2.607,2.607,0,0,0,.346-1.7V101.7q0-1.168.053-2.306a2.133,2.133,0,0,0-1.276-2.148A3.846,3.846,0,0,0,825,96.993q-0.426.064-.878,0.095c-0.3.022-.594,0.032-0.877,0.032a11.414,11.414,0,0,1-1.357-.063,1.045,1.045,0,0,1-.745-0.379,1.762,1.762,0,0,1-.292-0.916q-0.054-.6-0.054-1.611,0.052-2.969.107-5.875t0.159-5.938V81.389a8.968,8.968,0,0,1,.054-0.948c0.035-.421.07-0.758,0.106-1.011a1.162,1.162,0,0,1,.239-0.6,1.252,1.252,0,0,1,.506-0.348,3.52,3.52,0,0,1,.851-0.189,1.192,1.192,0,0,1,.426-0.063h0Z" transform="translate(-273.217 -38.586)"/>
    <path id="your_number_one_digital_shop_" data-name="your number one digital shop!" class="cls-2" d="M274.928,162.823c0.011,0.069.023,0.134,0.034,0.2q0.449,2.275.99,4.5t1.2,4.453c0.069,0.253.143,0.508,0.224,0.766a3.746,3.746,0,0,1,.155.766c0.034,0.337.057,0.672,0.069,1s0.017,0.666.017,1c-0.012.274-.017,0.55-0.017,0.829s-0.006.561-.018,0.845l-0.068,3.317q-0.018.426-.018,0.845t-0.017.829a0.681,0.681,0,0,0,.1.434,0.8,0.8,0,0,0,.448.182,3.8,3.8,0,0,0,.878.055q0.431-.022.878-0.023a0.328,0.328,0,0,0,.362-0.332c0-.084,0-0.168.009-0.253s0.008-.168.008-0.252q0.018-1.09-.017-2.156t-0.086-2.14q-0.035-.854-0.034-1.714t0.034-1.714q0.034-.457.06-0.916a4.563,4.563,0,0,1,.147-0.916q1.066-4.563,2.427-8.986a2.385,2.385,0,0,1,.087-0.324,2.543,2.543,0,0,0,.086-0.324,0.381,0.381,0,0,0-.043-0.308,0.43,0.43,0,0,0-.319-0.087h-0.835c-0.281,0-.56.006-0.835,0.016a0.91,0.91,0,0,0-.439.095,0.692,0.692,0,0,0-.2.363l-1.447,4.454a0.5,0.5,0,0,0-.017.126c0,0.043-.046.069-0.138,0.079l-0.465-1.753q-0.171-.663-0.344-1.311a10.618,10.618,0,0,0-.43-1.279,1.241,1.241,0,0,0-.439-0.608,1.456,1.456,0,0,0-.8-0.118,5.71,5.71,0,0,0-.586.094,1.8,1.8,0,0,1-.585.032A0.526,0.526,0,0,0,274.928,162.823ZM302,170.088q0-.972-0.018-1.951,0-.741-0.051-1.595a8.178,8.178,0,0,0-.276-1.666,5.728,5.728,0,0,0-.654-1.508,3.362,3.362,0,0,0-1.188-1.137,2.41,2.41,0,0,0-1.636-.316,2.69,2.69,0,0,0-1.068.363,3.955,3.955,0,0,0-.843.7,5.071,5.071,0,0,0-.835,1.184,7.093,7.093,0,0,0-.508,1.319,11.448,11.448,0,0,0-.293,1.39q-0.1.7-.155,1.4a24,24,0,0,0-.077,2.795q0.042,1.391-.044,2.8-0.069.9-.051,1.777t0.034,1.776a14.613,14.613,0,0,0,.155,1.888,5.476,5.476,0,0,0,.534,1.7,3.911,3.911,0,0,0,1.128,1.334,4.772,4.772,0,0,0,1.954.814,2.38,2.38,0,0,0,.448.047,2.31,2.31,0,0,0,.99-0.213,3.289,3.289,0,0,0,.835-0.561,4.707,4.707,0,0,0,.672-0.766,4.416,4.416,0,0,0,.464-0.829,2.407,2.407,0,0,0,.19-0.624c0.034-.216.069-0.429,0.1-0.64q0.189-1.374.241-2.732t0.069-2.732c0-.337-0.008-0.679-0.026-1.027s-0.031-.689-0.043-1.026Q302,171.06,302,170.088Zm-2.635,4.77q0.035,1-.017,2-0.018.346-.06,0.687a3.145,3.145,0,0,1-.164.671,2.907,2.907,0,0,1-.138.316,1.719,1.719,0,0,1-.215.331,1.183,1.183,0,0,1-.293.261,0.646,0.646,0,0,1-.353.1,0.6,0.6,0,0,1-.456-0.214,2.009,2.009,0,0,1-.336-0.5,3.7,3.7,0,0,1-.224-0.584q-0.086-.3-0.12-0.474a19.9,19.9,0,0,1-.233-2.4q-0.042-1.2.026-2.432,0.034-.774.061-1.532t0.077-1.532a1.943,1.943,0,0,0,.017-0.253v-0.252l0.052-1c0.011-.19.023-0.372,0.034-0.545a2.034,2.034,0,0,1,.095-0.5,1.417,1.417,0,0,1,.241-0.442,1.88,1.88,0,0,1,.456-0.4,0.8,0.8,0,0,1,.362-0.126,0.561,0.561,0,0,1,.431.284,2.236,2.236,0,0,1,.284.7,9,9,0,0,1,.18.932c0.046,0.326.078,0.645,0.1,0.955s0.032,0.566.043,0.766q0.034,0.805.078,1.58a13.3,13.3,0,0,1,.008,1.421Q299.327,173.855,299.361,174.858Zm23.813-3.435v-1.9q0.018-1.357.069-2.692t0.052-2.693a5.212,5.212,0,0,0-.026-0.522c-0.017-.168-0.037-0.336-0.06-0.5a0.842,0.842,0,0,0-.706-0.758,5.189,5.189,0,0,0-.663-0.079,2.91,2.91,0,0,0-.663.047,0.808,0.808,0,0,0-.706.648,2.46,2.46,0,0,0-.078.529c0,0.174,0,.35.009,0.529q0.017,0.459.035,0.924t0.034,0.94q0.017,1.042.017,2.069v3.253l-0.034,2.354v1.184q0,0.711-.017,1.4t-0.052,1.4c-0.012.105-.029,0.236-0.052,0.394a1.827,1.827,0,0,1-.129.458,1.308,1.308,0,0,1-.241.379,0.5,0.5,0,0,1-.387.158,0.737,0.737,0,0,1-.569-0.315,1.57,1.57,0,0,1-.258-0.514,5.908,5.908,0,0,1-.172-0.679c-0.046-.237-0.084-0.471-0.112-0.7s-0.049-.426-0.06-0.584q-0.087-.948-0.1-1.9t-0.051-1.919q-0.053-1.643,0-3.269,0.051-1.28.077-2.559t-0.008-2.559a4.778,4.778,0,0,0-.121-1.105,0.706,0.706,0,0,0-.207-0.395,0.751,0.751,0,0,0-.464-0.111,3.249,3.249,0,0,0-.457.04,2.994,2.994,0,0,0-.525.126,1.894,1.894,0,0,0-.456.221,0.786,0.786,0,0,0-.284.324,0.837,0.837,0,0,0-.061.269c-0.006.094-.014,0.184-0.025,0.268-0.024.306-.041,0.608-0.052,0.908s-0.029.6-.052,0.908q-0.1,1.264-.163,2.512t-0.078,2.527q0,1.089.043,2.187T315.5,174.8q0.034,1.028.069,2.046a20.26,20.26,0,0,0,.172,2.045,7.633,7.633,0,0,0,.327,1.469,4.478,4.478,0,0,0,.689,1.334,3.635,3.635,0,0,0,1.11.972,3.2,3.2,0,0,0,1.61.379,3.334,3.334,0,0,0,1.7-.4,3.451,3.451,0,0,0,1.137-1.042,4.392,4.392,0,0,0,.637-1.445,6.667,6.667,0,0,0,.2-1.6v-7.138h0.034Zm15.919-9.019a1.019,1.019,0,0,0-.405-0.015,2.076,2.076,0,0,1-.319.039q-0.164.007-.318,0.024l-0.654.047a0.776,0.776,0,0,0-.362.071,0.5,0.5,0,0,0-.052.356q0.069,1.358.035,2.692T337,168.311q0.033,2.907.043,5.781T337,179.872q-0.018.616-.018,1.24v1.24a0.62,0.62,0,0,0,.147.442,0.835,0.835,0,0,0,.49.126,2.976,2.976,0,0,0,.749-0.031q0.37-.063.749-0.095a0.442,0.442,0,0,0,.431-0.411c0.011-.063.02-0.126,0.026-0.189s0.008-.132.008-0.2q0.018-.965,0-1.927,0-1.091-.017-2.172t-0.034-2.172v-0.229a0.39,0.39,0,0,1,.1-0.244c0.023,0.063.043,0.116,0.06,0.158s0.037,0.089.061,0.142q0.567,1.706,1.127,3.4t1.214,3.388a0.674,0.674,0,0,0,.181.292,0.768,0.768,0,0,0,.388.087c0.137,0.011.278,0.019,0.421,0.024s0.284,0.008.422,0.008,0.25,0.018.37,0.023a2.892,2.892,0,0,0,.371-0.007c0.252-.011.35-0.127,0.292-0.348a2.778,2.778,0,0,0-.086-0.332c-0.034-.1-0.069-0.21-0.1-0.315q-0.534-1.817-1.128-3.586t-1.145-3.569a0.7,0.7,0,0,1-.06-0.332,0.674,0.674,0,0,1,.318-0.173,3.446,3.446,0,0,0,1.094-.7,3.272,3.272,0,0,0,.663-0.932,4.133,4.133,0,0,0,.335-1.1q0.094-.584.147-1.184,0.069-1.611,0-3.191a6.571,6.571,0,0,0-.241-1.5,4.842,4.842,0,0,0-.655-1.39q-0.258-.394-0.525-0.742a3.461,3.461,0,0,0-.594-0.608,2.741,2.741,0,0,0-.749-0.419,2.825,2.825,0,0,0-.99-0.158,2.383,2.383,0,0,0-.826.127,1.971,1.971,0,0,0-.319.181,1.779,1.779,0,0,1-.336.182A0.4,0.4,0,0,0,339.093,162.4Zm2.393,7.052q0.009,0.309-.009.624a1.2,1.2,0,0,1-.06.34,1.652,1.652,0,0,1-.172.379,1.228,1.228,0,0,1-.267.308,0.556,0.556,0,0,1-.362.126,0.484,0.484,0,0,1-.344-0.15,1.482,1.482,0,0,1-.267-0.355,2,2,0,0,1-.172-0.419,1.356,1.356,0,0,1-.06-0.355q-0.053-.711-0.043-1.414t0.043-1.413a1.458,1.458,0,0,1,.344-0.869,0.653,0.653,0,0,1,.534-0.3,0.624,0.624,0,0,1,.551.426,2.833,2.833,0,0,1,.189.68c0.035,0.231.063,0.463,0.086,0.694a5.356,5.356,0,0,1,.009.537q-0.009.27-.009,0.537Q341.477,169.149,341.486,169.456Zm33.791-6.53a0.884,0.884,0,0,0-.249-0.458,1.069,1.069,0,0,0-.525-0.143q-0.345-.015-0.681-0.008t-0.68.024a0.691,0.691,0,0,0-.447.134,0.534,0.534,0,0,0-.1.419c0,0.084,0,.174.009,0.268s0.014,0.19.026,0.285a7.256,7.256,0,0,1,.017,1.8,2.662,2.662,0,0,0-.017.3v6.5q0,1.763.051,3.53,0.052,1.676.035,3.333t-0.052,3.332a0.567,0.567,0,0,0,.1.443,0.879,0.879,0,0,0,.483.142,2.884,2.884,0,0,0,.6,0l0.6-.063a0.735,0.735,0,0,0,.611-0.372,1.684,1.684,0,0,0,.129-0.687q0.069-2.132.121-4.24t0.12-4.225q0.069-1.643.1-3.262t0-3.245a0.714,0.714,0,0,1,.06-0.379,1.173,1.173,0,0,1,.215-0.3,0.824,0.824,0,0,1,.568-0.3,0.672,0.672,0,0,1,.551.41,2.2,2.2,0,0,1,.2.537c0.052,0.211.1,0.429,0.13,0.656s0.06,0.447.077,0.663,0.032,0.408.043,0.577q0.1,1.374.215,2.716t0.095,2.717q0,0.774-.009,1.539t-0.025,1.54q-0.036.743-.026,1.477t0.026,1.477q0,0.442-.018.868c-0.011.285-.034,0.574-0.068,0.869-0.012.084-.021,0.174-0.026,0.269s-0.009.189-.009,0.284a0.448,0.448,0,0,0,.095.3,0.573,0.573,0,0,0,.249.166,1.654,1.654,0,0,0,.328.079,2.349,2.349,0,0,0,.327.023,1.046,1.046,0,0,0,.129-0.007,0.747,0.747,0,0,1,.112-0.008l0.5-.048a1.362,1.362,0,0,0,.241-0.016,0.81,0.81,0,0,0,.413-0.118,0.582,0.582,0,0,0,.138-0.371,5.51,5.51,0,0,0,.043-0.821q-0.009-.411-0.043-0.822-0.035-1.074-.051-2.132t0.051-2.132l0.069-1.232c0.023-.411.04-0.826,0.052-1.248q0.035-1.1.043-2.2t-0.009-2.2V167.79q0-.442-0.008-0.829c-0.006-.258-0.021-0.511-0.043-0.758a5.805,5.805,0,0,0-.121-0.743c-0.058-.247-0.132-0.513-0.224-0.8a4.027,4.027,0,0,0-.4-0.829,3.7,3.7,0,0,0-.611-0.751,2.95,2.95,0,0,0-.8-0.536,2.282,2.282,0,0,0-.964-0.206,2.337,2.337,0,0,0-.818.15,2.413,2.413,0,0,0-.749.45l-0.06.056a0.111,0.111,0,0,1-.095.008,0.4,0.4,0,0,1-.052-0.079h0Zm26.1,8.5v-1.9q0.017-1.357.069-2.692t0.051-2.693a4.931,4.931,0,0,0-.026-0.522c-0.017-.168-0.037-0.336-0.06-0.5a0.841,0.841,0,0,0-.706-0.758,5.168,5.168,0,0,0-.663-0.079,2.918,2.918,0,0,0-.663.047,0.808,0.808,0,0,0-.706.648,2.458,2.458,0,0,0-.077.529,5.212,5.212,0,0,0,.009.529q0.017,0.459.034,0.924c0.011,0.311.023,0.624,0.034,0.94q0.018,1.042.018,2.069v3.253l-0.035,2.354v1.184q0,0.711-.017,1.4t-0.052,1.4c-0.011.105-.028,0.236-0.051,0.394a1.87,1.87,0,0,1-.129.458,1.31,1.31,0,0,1-.242.379,0.5,0.5,0,0,1-.387.158,0.734,0.734,0,0,1-.568-0.315,1.551,1.551,0,0,1-.258-0.514,5.908,5.908,0,0,1-.173-0.679q-0.069-.355-0.112-0.7c-0.028-.231-0.049-0.426-0.06-0.584q-0.086-.948-0.1-1.9t-0.052-1.919q-0.051-1.643,0-3.269,0.052-1.28.078-2.559t-0.009-2.559a4.78,4.78,0,0,0-.12-1.105,0.706,0.706,0,0,0-.207-0.395,0.752,0.752,0,0,0-.465-0.111,3.249,3.249,0,0,0-.456.04,2.994,2.994,0,0,0-.525.126,1.884,1.884,0,0,0-.457.221,0.786,0.786,0,0,0-.284.324,0.864,0.864,0,0,0-.06.269c-0.006.094-.015,0.184-0.026,0.268-0.023.306-.04,0.608-0.052,0.908s-0.028.6-.051,0.908q-0.1,1.264-.164,2.512t-0.077,2.527q0,1.089.043,2.187T393.7,174.8q0.034,1.028.069,2.046t0.172,2.045a7.785,7.785,0,0,0,.327,1.469,4.5,4.5,0,0,0,.689,1.334,3.651,3.651,0,0,0,1.111.972,3.2,3.2,0,0,0,1.61.379,3.337,3.337,0,0,0,1.7-.4,3.447,3.447,0,0,0,1.136-1.042,4.371,4.371,0,0,0,.637-1.445,6.667,6.667,0,0,0,.2-1.6v-7.138h0.035Zm16.34-8.75a0.527,0.527,0,0,0-.172-0.213,0.686,0.686,0,0,0-.259-0.1,2.037,2.037,0,0,0-.4-0.032q-0.585-.015-1.17,0a0.872,0.872,0,0,0-.5.158,0.557,0.557,0,0,0-.1.474q0.035,0.459.069,0.9t0.069,0.9a8.164,8.164,0,0,1,.06,1.121q-0.009.569-.026,1.121-0.035.633-.086,1.264t-0.052,1.263q-0.016,1.548,0,3.072t0.069,3.072q0.035,1.659.017,3.293t-0.051,3.293a0.534,0.534,0,0,0,.1.427,0.836,0.836,0,0,0,.465.142,1.865,1.865,0,0,0,.448.008c0.149-.016.3-0.03,0.447-0.04a3.341,3.341,0,0,0,.517-0.087,0.694,0.694,0,0,0,.318-0.166,0.641,0.641,0,0,0,.164-0.292,2.36,2.36,0,0,0,.069-0.481q0-.554.017-1.114c0.011-.374.029-0.745,0.052-1.113l0.1-4.186c0.023-.358.037-0.71,0.043-1.058s0.014-.695.026-1.042q0.069-1.627.1-3.254t0-3.253a0.885,0.885,0,0,1,.276-0.679,0.808,0.808,0,0,1,.568-0.316,0.474,0.474,0,0,1,.344.134,1.221,1.221,0,0,1,.233.316,2.2,2.2,0,0,1,.155.387,2.174,2.174,0,0,1,.077.347,8.274,8.274,0,0,1,.129.861c0.029,0.29.055,0.576,0.078,0.861q0.086,1.121.172,2.227t0.1,2.227q0.035,1.343.018,2.661t-0.035,2.661q0,0.6-.008,1.2t-0.009,1.2a5.9,5.9,0,0,1-.043.71q-0.043.348-.06,0.7a0.559,0.559,0,0,0,.1.419,0.85,0.85,0,0,0,.413.213,3.016,3.016,0,0,0,.551.047,0.867,0.867,0,0,0,.121-0.007,0.708,0.708,0,0,1,.12-0.008l0.465-.048a1.2,1.2,0,0,0,.241-0.016,0.733,0.733,0,0,0,.379-0.11,0.605,0.605,0,0,0,.121-0.348,4.5,4.5,0,0,0,.06-0.829q-0.009-.418-0.043-0.829-0.034-1.074-.052-2.132t0.052-2.132l0.069-1.2q0.034-.6.051-1.2,0.053-1.863.052-3.7t-0.017-3.7a0.884,0.884,0,0,1,.275-0.679,0.75,0.75,0,0,1,.517-0.253,0.644,0.644,0,0,1,.551.379,2.734,2.734,0,0,1,.25.735q0.111,0.5.189,1.145c0.052,0.431.1,0.887,0.138,1.366s0.071,0.939.094,1.382,0.043,0.845.061,1.208,0.025,0.645.025,0.845q0.053,2.053.018,4.075t-0.052,4.074a1.186,1.186,0,0,1-.009.15,1.45,1.45,0,0,0-.008.151l-0.069.584a1.186,1.186,0,0,1-.009.15,1.192,1.192,0,0,0-.008.15,0.667,0.667,0,0,0,.129.545,0.9,0.9,0,0,0,.577.2,3.763,3.763,0,0,0,.645.008c0.213-.016.428-0.039,0.646-0.071a0.811,0.811,0,0,0,.413-0.11,0.653,0.653,0,0,0,.121-0.38,5.5,5.5,0,0,0,.043-0.805c-0.006-.263-0.02-0.532-0.043-0.805q-0.034-1.074-.052-2.133t0.035-2.116q0.035-.648.077-1.271t0.06-1.256q0.035-1.106.043-2.195t-0.008-2.2v-2.621a7.458,7.458,0,0,0-.164-1.493,5.068,5.068,0,0,0-.551-1.485,3.616,3.616,0,0,0-1.007-1.145,2.539,2.539,0,0,0-1.55-.458,2.715,2.715,0,0,0-.74.1,1.567,1.567,0,0,0-.637.355c-0.15.137-.3,0.269-0.465,0.4l-0.5.4q-0.225-.252-0.448-0.482a2.753,2.753,0,0,0-.482-0.394,2.292,2.292,0,0,0-.56-0.261,2.544,2.544,0,0,0-1.55.055,2.3,2.3,0,0,0-.749.466,0.545,0.545,0,0,0-.06.032l-0.077.047A2.7,2.7,0,0,0,417.721,162.673Zm26-.4a0.33,0.33,0,0,0-.292-0.063l-0.792.063-0.792.063a0.575,0.575,0,0,0-.207.055,0.211,0.211,0,0,0-.086.166,2.4,2.4,0,0,1-.052.316,1.343,1.343,0,0,0-.034.316,6.235,6.235,0,0,0-.017.806q0.017,0.394.034,0.805,0.051,3.428.043,6.823t-0.043,6.823q-0.018,1.026.017,2.029a20.006,20.006,0,0,1-.034,2.03,0.348,0.348,0,0,0,.034.26,0.784,0.784,0,0,0,.293.071q0.431,0.017.861,0.008a5.19,5.19,0,0,1,.861.056,0.506,0.506,0,0,1,.086.008,0.1,0.1,0,0,0,.086-0.024,0.172,0.172,0,0,1,.215-0.071c0.063,0.037.123,0.076,0.181,0.118a1.719,1.719,0,0,0,.611.277,2.237,2.237,0,0,0,.68.039,2.538,2.538,0,0,0,.836-0.166,4.035,4.035,0,0,0,.749-0.387,2.346,2.346,0,0,0,.576-0.513c0.155-.195.313-0.4,0.474-0.608a5.2,5.2,0,0,0,.749-1.421,6.05,6.05,0,0,0,.3-1.548q0.035-.854.035-1.674t-0.052-1.675a11.9,11.9,0,0,0-.129-1.192,3.652,3.652,0,0,0-.388-1.145,1.024,1.024,0,0,1-.043-0.2,0.27,0.27,0,0,1,.061-0.182,4.048,4.048,0,0,0,.439-1.232,10.684,10.684,0,0,0,.146-1.3q0.052-.805.052-1.611t-0.035-1.611a5.738,5.738,0,0,0-.292-1.6,5.529,5.529,0,0,0-.775-1.477l-0.431-.584a2.349,2.349,0,0,0-1.007-.837,3.808,3.808,0,0,0-1.334-.284,1.452,1.452,0,0,0-.551.071,2.616,2.616,0,0,0-.5.229c-0.057.031-.112,0.063-0.163,0.094l-0.181.111A1.079,1.079,0,0,0,443.72,162.278Zm0.6,4.8a2.338,2.338,0,0,1,.078-0.4,2.073,2.073,0,0,1,.163-0.418,1.157,1.157,0,0,1,.267-0.34,0.6,0.6,0,0,1,.4-0.142,0.424,0.424,0,0,1,.267.087,0.808,0.808,0,0,1,.189.213,1.447,1.447,0,0,1,.129.269,1.384,1.384,0,0,1,.069.252,8.729,8.729,0,0,1,.207,1.706,17.054,17.054,0,0,1-.052,1.706,1.67,1.67,0,0,1-.078.324,1.386,1.386,0,0,1-.172.347,1.143,1.143,0,0,1-.258.277,0.548,0.548,0,0,1-.336.11,0.5,0.5,0,0,1-.361-0.15,1.35,1.35,0,0,1-.259-0.347,2.118,2.118,0,0,1-.163-0.419,2.605,2.605,0,0,1-.078-0.363,5.107,5.107,0,0,1-.051-0.711,6.568,6.568,0,0,1,.034-0.679,8.64,8.64,0,0,1,0-1.327h0Zm-0.12,9.145c0-.221.011-0.448,0.034-0.679a2.807,2.807,0,0,1,.077-0.371,2.268,2.268,0,0,1,.164-0.435,1.237,1.237,0,0,1,.267-0.355,0.532,0.532,0,0,1,.37-0.15,0.548,0.548,0,0,1,.336.11,1.088,1.088,0,0,1,.25.269,1.9,1.9,0,0,1,.172.332,0.865,0.865,0,0,1,.069.315,13.967,13.967,0,0,1,.06,1.754,9.46,9.46,0,0,1-.215,1.737,1.109,1.109,0,0,1-.069.237,1.553,1.553,0,0,1-.129.245,0.8,0.8,0,0,1-.181.2,0.411,0.411,0,0,1-.258.079,0.539,0.539,0,0,1-.293-0.087,1,1,0,0,1-.241-0.213,1.584,1.584,0,0,1-.181-0.276,1.629,1.629,0,0,1-.112-0.261,3.04,3.04,0,0,1-.1-0.64,5.675,5.675,0,0,1,0-.639c0-.085,0-0.166.008-0.245s0.009-.171.009-0.277A5.946,5.946,0,0,1,444.2,176.224ZM466.4,165.958a4.224,4.224,0,0,1,.9-0.063c0.3,0.01.6,0.01,0.895,0H468.4a1.661,1.661,0,0,0,.224-0.016h0.826a1.828,1.828,0,0,1,.224-0.016h0.207a0.844,0.844,0,0,0,.5-0.15,0.719,0.719,0,0,0,.138-0.466c0.011-.052.02-0.1,0.026-0.134a1,1,0,0,0,.008-0.134q0.016-.554.035-1.09t0.017-1.074a0.473,0.473,0,0,0-.095-0.316,0.579,0.579,0,0,0-.25-0.166,1.193,1.193,0,0,0-.335-0.063c-0.121-.005-0.239-0.008-0.353-0.008h-1.033c-0.345,0-.689-0.016-1.034-0.047l-1.885-.158a16.007,16.007,0,0,0-1.885-.047,4.147,4.147,0,0,0-.491.047,0.6,0.6,0,0,0-.284.118,0.432,0.432,0,0,0-.138.253,2.2,2.2,0,0,0-.035.434q0,0.9.026,1.769T462.8,166.4q-0.087,2.117-.138,4.2t-0.052,4.2q0,1.533-.017,3.049T462.42,180.9a3.47,3.47,0,0,0-.026.553c0.006,0.189.02,0.373,0.043,0.552a0.89,0.89,0,0,0,.172.458,0.841,0.841,0,0,0,.362.261,1.777,1.777,0,0,0,.482.111c0.172,0.015.344,0.023,0.517,0.023h5.458c0.138,0,.275,0,0.413-0.016a2.274,2.274,0,0,0,.4-0.063,0.893,0.893,0,0,0,.448-0.229,0.564,0.564,0,0,0,.12-0.434c0-.074,0-0.142-0.008-0.205s-0.015-.127-0.026-0.19c-0.023-.295-0.049-0.584-0.077-0.869s-0.061-.568-0.1-0.852a0.8,0.8,0,0,0-.758-0.711,2.383,2.383,0,0,0-.723-0.047l-0.775.047-1.093.063c-0.362.021-.726,0.047-1.094,0.079a0.84,0.84,0,0,1-.361-0.024,0.526,0.526,0,0,1-.1-0.339v-0.079l-0.017-.142v-0.064q-0.051-1.041-.069-2.061t0.069-2.061a0.72,0.72,0,0,1,.061-0.308,0.644,0.644,0,0,1,.318-0.1c0.23-.032.459-0.053,0.689-0.063s0.459-.027.689-0.048a0.7,0.7,0,0,0,.456-0.142,0.537,0.537,0,0,0,.112-0.426v-1.746c0-.194,0-0.387.017-0.576a0.537,0.537,0,0,0-.413-0.537,1.588,1.588,0,0,0-.637-0.063c-0.092.01-.187,0.018-0.284,0.023s-0.193.008-.285,0.008c-0.183,0-.33,0-0.439-0.016a0.374,0.374,0,0,1-.241-0.094,0.38,0.38,0,0,1-.094-0.229,3.545,3.545,0,0,1-.018-0.4q0.018-.742.035-1.469t0.051-1.484v-0.237a1.68,1.68,0,0,1,.018-0.237c0.011-.1.023-0.19,0.034-0.253a0.254,0.254,0,0,1,.078-0.15,0.413,0.413,0,0,1,.163-0.087,1.392,1.392,0,0,1,.276-0.047,0.463,0.463,0,0,1,.137-0.016h0Zm19.087-3.554a1.013,1.013,0,0,0-.4-0.015,2.091,2.091,0,0,1-.319.039q-0.164.007-.318,0.024l-0.655.047a0.771,0.771,0,0,0-.361.071,0.5,0.5,0,0,0-.052.356q0.069,1.358.034,2.692t-0.017,2.693q0.035,2.907.043,5.781t-0.043,5.78q-0.017.616-.017,1.24v1.24a0.616,0.616,0,0,0,.146.442,0.839,0.839,0,0,0,.491.126,2.978,2.978,0,0,0,.749-0.031c0.247-.042.5-0.074,0.749-0.095a0.442,0.442,0,0,0,.431-0.411c0.011-.063.019-0.126,0.025-0.189s0.009-.132.009-0.2q0.016-.965,0-1.927,0-1.091-.017-2.172t-0.035-2.172v-0.229a0.392,0.392,0,0,1,.1-0.244c0.023,0.063.043,0.116,0.06,0.158s0.037,0.089.06,0.142q0.569,1.706,1.128,3.4t1.214,3.388a0.655,0.655,0,0,0,.181.292,0.767,0.767,0,0,0,.387.087c0.138,0.011.278,0.019,0.422,0.024s0.284,0.008.422,0.008,0.25,0.018.37,0.023a2.873,2.873,0,0,0,.37-0.007c0.253-.011.35-0.127,0.293-0.348a2.982,2.982,0,0,0-.086-0.332c-0.035-.1-0.069-0.21-0.1-0.315q-0.534-1.817-1.128-3.586t-1.145-3.569a0.7,0.7,0,0,1-.061-0.332,0.687,0.687,0,0,1,.319-0.173,3.429,3.429,0,0,0,1.093-.7,3.252,3.252,0,0,0,.663-0.932,4.1,4.1,0,0,0,.336-1.1q0.094-.584.146-1.184,0.069-1.611,0-3.191a6.517,6.517,0,0,0-.241-1.5,4.839,4.839,0,0,0-.654-1.39q-0.258-.394-0.525-0.742a3.461,3.461,0,0,0-.594-0.608,2.741,2.741,0,0,0-.749-0.419,2.828,2.828,0,0,0-.99-0.158,2.389,2.389,0,0,0-.827.127,1.96,1.96,0,0,0-.318.181,1.779,1.779,0,0,1-.336.182A0.407,0.407,0,0,0,485.484,162.4Zm2.394,7.052q0.007,0.309-.009.624a1.2,1.2,0,0,1-.06.34,1.7,1.7,0,0,1-.172.379,1.228,1.228,0,0,1-.267.308,0.558,0.558,0,0,1-.362.126,0.484,0.484,0,0,1-.344-0.15,1.431,1.431,0,0,1-.267-0.355,2,2,0,0,1-.172-0.419,1.323,1.323,0,0,1-.061-0.355q-0.051-.711-0.043-1.414t0.043-1.413a1.452,1.452,0,0,1,.345-0.869,0.653,0.653,0,0,1,.534-0.3,0.624,0.624,0,0,1,.551.426,2.88,2.88,0,0,1,.189.68c0.034,0.231.063,0.463,0.086,0.694q0.016,0.27.009,0.537t-0.009.537Q487.869,169.149,487.878,169.456Zm38.216,0.632q0-.972-0.017-1.951,0-.741-0.052-1.595a8.108,8.108,0,0,0-.275-1.666,5.761,5.761,0,0,0-.654-1.508,3.366,3.366,0,0,0-1.189-1.137,2.407,2.407,0,0,0-1.635-.316,2.69,2.69,0,0,0-1.068.363,3.961,3.961,0,0,0-.844.7,5.131,5.131,0,0,0-.835,1.184,7.235,7.235,0,0,0-.508,1.319,11.637,11.637,0,0,0-.292,1.39q-0.1.7-.155,1.4a23.787,23.787,0,0,0-.078,2.795q0.043,1.391-.043,2.8-0.069.9-.052,1.777t0.035,1.776a14.437,14.437,0,0,0,.155,1.888,5.45,5.45,0,0,0,.534,1.7,3.908,3.908,0,0,0,1.127,1.334,4.777,4.777,0,0,0,1.955.814,2.372,2.372,0,0,0,.448.047,2.316,2.316,0,0,0,.99-0.213,3.289,3.289,0,0,0,.835-0.561,4.654,4.654,0,0,0,.671-0.766,4.48,4.48,0,0,0,.465-0.829,2.407,2.407,0,0,0,.19-0.624q0.051-.324.1-0.64,0.189-1.374.241-2.732t0.069-2.732q0-.506-0.026-1.027c-0.017-.347-0.032-0.689-0.043-1.026Q526.094,171.06,526.094,170.088Zm-2.634,4.77q0.034,1-.017,2-0.018.346-.061,0.687a3.083,3.083,0,0,1-.163.671,3.361,3.361,0,0,1-.138.316,1.767,1.767,0,0,1-.215.331,1.183,1.183,0,0,1-.293.261,0.648,0.648,0,0,1-.353.1,0.6,0.6,0,0,1-.456-0.214,2.009,2.009,0,0,1-.336-0.5,3.6,3.6,0,0,1-.224-0.584c-0.057-.2-0.1-0.358-0.12-0.474a19.9,19.9,0,0,1-.233-2.4q-0.043-1.2.026-2.432,0.034-.774.06-1.532t0.078-1.532a1.943,1.943,0,0,0,.017-0.253v-0.252l0.052-1c0.011-.19.022-0.372,0.034-0.545a1.988,1.988,0,0,1,.095-0.5,1.4,1.4,0,0,1,.241-0.442,1.88,1.88,0,0,1,.456-0.4,0.8,0.8,0,0,1,.362-0.126,0.559,0.559,0,0,1,.43.284,2.212,2.212,0,0,1,.284.7,8.743,8.743,0,0,1,.181.932c0.046,0.326.078,0.645,0.095,0.955s0.031,0.566.043,0.766q0.035,0.805.077,1.58a13.062,13.062,0,0,1,.009,1.421Q523.426,173.855,523.46,174.858Zm19.061-11.932a0.891,0.891,0,0,0-.25-0.458,1.069,1.069,0,0,0-.525-0.143q-0.345-.015-0.68-0.008t-0.681.024a0.691,0.691,0,0,0-.447.134,0.534,0.534,0,0,0-.1.419c0,0.084,0,.174.009,0.268s0.014,0.19.026,0.285a7.256,7.256,0,0,1,.017,1.8,2.92,2.92,0,0,0-.017.3v6.5q0,1.763.052,3.53,0.051,1.676.034,3.333t-0.052,3.332a0.563,0.563,0,0,0,.1.443,0.872,0.872,0,0,0,.482.142,2.884,2.884,0,0,0,.6,0l0.6-.063a0.735,0.735,0,0,0,.611-0.372,1.684,1.684,0,0,0,.129-0.687q0.069-2.132.121-4.24t0.121-4.225q0.067-1.643.1-3.262t0-3.245a0.714,0.714,0,0,1,.06-0.379,1.173,1.173,0,0,1,.215-0.3,0.824,0.824,0,0,1,.569-0.3,0.675,0.675,0,0,1,.551.41,2.288,2.288,0,0,1,.2.537c0.051,0.211.094,0.429,0.129,0.656s0.06,0.447.077,0.663,0.032,0.408.043,0.577q0.1,1.374.215,2.716t0.1,2.717q0,0.774-.008,1.539t-0.026,1.54q-0.035.743-.026,1.477t0.026,1.477q0,0.442-.017.868c-0.012.285-.035,0.574-0.069,0.869-0.012.084-.021,0.174-0.026,0.269s-0.009.189-.009,0.284a0.448,0.448,0,0,0,.1.3,0.57,0.57,0,0,0,.25.166,1.628,1.628,0,0,0,.327.079,2.359,2.359,0,0,0,.327.023,1.046,1.046,0,0,0,.129-0.007,0.756,0.756,0,0,1,.112-0.008l0.5-.048a1.355,1.355,0,0,0,.241-0.016,0.818,0.818,0,0,0,.414-0.118,0.583,0.583,0,0,0,.137-0.371,5.51,5.51,0,0,0,.043-0.821c0-.274-0.02-0.548-0.043-0.822q-0.034-1.074-.051-2.132t0.051-2.132l0.069-1.232c0.023-.411.04-0.826,0.052-1.248q0.035-1.1.043-2.2t-0.009-2.2V167.79q0-.442-0.008-0.829t-0.043-.758a5.635,5.635,0,0,0-.121-0.743q-0.086-.371-0.224-0.8a4.027,4.027,0,0,0-.4-0.829,3.7,3.7,0,0,0-.611-0.751,2.934,2.934,0,0,0-.8-0.536,2.282,2.282,0,0,0-.964-0.206,2.341,2.341,0,0,0-.818.15,2.413,2.413,0,0,0-.749.45l-0.06.056a0.111,0.111,0,0,1-.1.008,0.365,0.365,0,0,1-.051-0.079h0Zm22.315,3.032a4.21,4.21,0,0,1,.895-0.063q0.447,0.015.9,0h0.206a1.649,1.649,0,0,0,.224-0.016h0.826a1.842,1.842,0,0,1,.224-0.016h0.207a0.844,0.844,0,0,0,.5-0.15,0.719,0.719,0,0,0,.138-0.466c0.011-.052.02-0.1,0.026-0.134a1,1,0,0,0,.008-0.134c0.012-.369.023-0.732,0.035-1.09s0.017-.716.017-1.074a0.473,0.473,0,0,0-.1-0.316,0.582,0.582,0,0,0-.249-0.166,1.2,1.2,0,0,0-.336-0.063c-0.121-.005-0.238-0.008-0.353-0.008h-1.033c-0.344,0-.689-0.016-1.033-0.047l-1.886-.158a16.007,16.007,0,0,0-1.885-.047,4.17,4.17,0,0,0-.491.047,0.6,0.6,0,0,0-.284.118,0.432,0.432,0,0,0-.138.253,2.213,2.213,0,0,0-.034.434q0,0.9.026,1.769t-0.009,1.769q-0.087,2.117-.138,4.2t-0.051,4.2q0,1.533-.018,3.049t-0.172,3.048a3.47,3.47,0,0,0-.026.553c0.006,0.189.02,0.373,0.043,0.552a0.89,0.89,0,0,0,.173.458,0.832,0.832,0,0,0,.361.261,1.777,1.777,0,0,0,.482.111c0.173,0.015.345,0.023,0.517,0.023h5.458c0.138,0,.276,0,0.413-0.016a2.3,2.3,0,0,0,.4-0.063,0.894,0.894,0,0,0,.447-0.229,0.568,0.568,0,0,0,.121-0.434c0-.074,0-0.142-0.009-0.205s-0.014-.127-0.026-0.19c-0.023-.295-0.049-0.584-0.077-0.869s-0.06-.568-0.095-0.852a0.8,0.8,0,0,0-.758-0.711,2.383,2.383,0,0,0-.723-0.047l-0.775.047-1.093.063q-0.543.032-1.093,0.079a0.843,0.843,0,0,1-.362-0.024,0.527,0.527,0,0,1-.1-0.339v-0.079l-0.017-.142v-0.064q-0.053-1.041-.069-2.061a20.43,20.43,0,0,1,.069-2.061,0.709,0.709,0,0,1,.06-0.308,0.649,0.649,0,0,1,.318-0.1c0.23-.032.459-0.053,0.689-0.063s0.459-.027.689-0.048a0.7,0.7,0,0,0,.456-0.142,0.537,0.537,0,0,0,.112-0.426v-1.746c0-.194.006-0.387,0.017-0.576a0.536,0.536,0,0,0-.413-0.537,1.586,1.586,0,0,0-.637-0.063c-0.092.01-.187,0.018-0.284,0.023s-0.193.008-.284,0.008c-0.184,0-.33,0-0.439-0.016a0.37,0.37,0,0,1-.241-0.094,0.375,0.375,0,0,1-.095-0.229,3.584,3.584,0,0,1-.017-0.4q0.016-.742.034-1.469t0.052-1.484v-0.237a1.672,1.672,0,0,1,.017-0.237c0.011-.1.023-0.19,0.034-0.253a0.265,0.265,0,0,1,.078-0.15,0.42,0.42,0,0,1,.163-0.087,1.392,1.392,0,0,1,.276-0.047,0.466,0.466,0,0,1,.138-0.016h0Zm31.923,8.1q-0.034.711-.035,1.437,0,1.627.018,3.238t0.034,3.238a2.929,2.929,0,0,0,.026.442,0.4,0.4,0,0,0,.112.237,0.466,0.466,0,0,0,.258.1,3.942,3.942,0,0,0,.482.023l1.283-.031c0.419-.011.841-0.026,1.266-0.048a5.558,5.558,0,0,0,2.161-.584,3.858,3.858,0,0,0,1.541-1.516,8.955,8.955,0,0,0,.43-0.829,2.64,2.64,0,0,0,.224-0.909q0.051-.489.077-0.979t0.043-.979q0.035-2.037,0-4.059,0-1.405-.068-2.78t-0.259-2.764a8.91,8.91,0,0,0-.74-2.511,3.324,3.324,0,0,0-.9-1.161,3.731,3.731,0,0,0-1.369-.671,12.9,12.9,0,0,0-1.61-.339,11.446,11.446,0,0,0-1.644-.119,4.325,4.325,0,0,0-.775.063,0.775,0.775,0,0,0-.388.127,0.522,0.522,0,0,0-.06.363q0,0.6-.017,1.216t-0.052,1.216q-0.035,1.785-.026,3.57t0.009,3.648Q596.793,173.35,596.759,174.06Zm2.686-6.049a3.023,3.023,0,0,1,.095-0.774,2.445,2.445,0,0,1,.318-0.71,1.946,1.946,0,0,1,.241-0.324,0.445,0.445,0,0,1,.379-0.134,0.518,0.518,0,0,1,.388.15,1.775,1.775,0,0,1,.249.323,1.88,1.88,0,0,1,.233.5c0.051,0.174.106,0.35,0.163,0.529a6.114,6.114,0,0,1,.241,1.263q0.053,0.633.1,1.28,0.1,1.437.12,2.835t-0.034,2.835q-0.034.505-.078,1.018a5.672,5.672,0,0,1-.181,1.019,2.843,2.843,0,0,1-.18.505,1.785,1.785,0,0,1-.3.443,1.433,1.433,0,0,1-.4.331,1.023,1.023,0,0,1-.516.127,0.6,0.6,0,0,1-.362-0.063,0.621,0.621,0,0,1-.207-0.3,2.12,2.12,0,0,1-.12-0.442c-0.023-.147-0.046-0.3-0.069-0.458-0.023-.431-0.037-0.861-0.043-1.287s-0.009-.861-0.009-1.3v-2.527h-0.034v-4.833Zm18.958-5.67c-0.253,0-.511.006-0.775,0.016a1.58,1.58,0,0,0-.379.047,1.1,1.1,0,0,0-.491.174,0.648,0.648,0,0,0-.163.427q-0.069.552-.086,1.113a9.288,9.288,0,0,0,.034,1.129,0.439,0.439,0,0,0,.121.3,0.683,0.683,0,0,0,.327.142,0.434,0.434,0,0,0,.155.032,0.589,0.589,0,0,1,.137.016,0.879,0.879,0,0,1,.474.229,0.7,0.7,0,0,1,.129.466l0.035,0.142v0.079q0.085,1.2.155,2.385t0.051,2.385q-0.034,1.642-.034,3.269t0.034,3.269c0.011,0.179.026,0.361,0.043,0.545a2.044,2.044,0,0,1-.026.561,0.721,0.721,0,0,1-.129.347,0.663,0.663,0,0,1-.37.111,1,1,0,0,1-.172.016H617.3a0.4,0.4,0,0,0-.4.315,0.911,0.911,0,0,0-.052.316q-0.034.585-.017,1.161t0.051,1.161a0.524,0.524,0,0,0,.5.5q0.275,0.048.551,0.079a2.417,2.417,0,0,0,.551,0q0.292-.032.585-0.047c0.2-.011.39-0.026,0.586-0.047q0.758-.048,1.48-0.143a0.913,0.913,0,0,0,.551-0.205,0.842,0.842,0,0,0,.19-0.521V182.02l0.017-.205V181.72a6.093,6.093,0,0,1,.052-0.805,4.681,4.681,0,0,0,.034-0.806,0.545,0.545,0,0,0-.62-0.568c-0.069,0-.137,0-0.206.007a1.071,1.071,0,0,1-.224-0.007,0.564,0.564,0,0,1-.267-0.056,0.446,0.446,0,0,1-.06-0.244c-0.023-.306-0.041-0.606-0.052-0.9s-0.017-.594-0.017-0.9q-0.018-1.531.008-3.04t0.112-3.041q0.069-1.357.086-2.692t0.018-2.693a0.226,0.226,0,0,1,.241-0.285,1.064,1.064,0,0,0,.551-0.142,0.568,0.568,0,0,0,.275-0.458q0.053-.537.052-1.066v-1.066a0.426,0.426,0,0,0-.362-0.442c-0.069-.021-0.14-0.04-0.215-0.055s-0.152-.034-0.232-0.056a4.928,4.928,0,0,0-.947-0.063q-0.465.017-.947,0H618.4Zm20.852,13.741a0.738,0.738,0,0,1-.018.189v0.4q-0.034.394-.069,0.782a3.015,3.015,0,0,1-.172.766,3.092,3.092,0,0,1-.137.316,1.773,1.773,0,0,1-.216.331,1.179,1.179,0,0,1-.292.261,0.651,0.651,0,0,1-.353.1,0.6,0.6,0,0,1-.457-0.214,1.979,1.979,0,0,1-.335-0.5,3.161,3.161,0,0,1-.216-0.584c-0.051-.2-0.089-0.358-0.112-0.474a18.343,18.343,0,0,1-.249-2.417q-0.043-1.2.026-2.416c0.022-.516.043-1.027,0.06-1.532s0.043-1.016.077-1.532a1.782,1.782,0,0,0,.017-0.253v-0.252l0.052-1c0.011-.19.023-0.372,0.035-0.545a2.033,2.033,0,0,1,.094-0.5,1.417,1.417,0,0,1,.241-0.442,1.868,1.868,0,0,1,.457-0.4,0.8,0.8,0,0,1,.361-0.126,0.569,0.569,0,0,1,.5.387,3.73,3.73,0,0,1,.292.9,9.242,9.242,0,0,1,.147,1q0.042,0.482.06,0.671a0.154,0.154,0,0,0,.06.127,0.233,0.233,0,0,0,.147.047h2.393a0.184,0.184,0,0,0,.224-0.19v-0.426c0-.137-0.006-0.279-0.017-0.427q0-.757-0.052-1.61a8.372,8.372,0,0,0-.267-1.659,5.566,5.566,0,0,0-.646-1.5,3.362,3.362,0,0,0-1.188-1.137,2.469,2.469,0,0,0-1.653-.316,2.616,2.616,0,0,0-1.059.363,4.475,4.475,0,0,0-.852.7,5.1,5.1,0,0,0-.835,1.184,7.093,7.093,0,0,0-.508,1.319,11.448,11.448,0,0,0-.293,1.39q-0.1.7-.155,1.4a24,24,0,0,0-.077,2.795q0.042,1.391-.043,2.8-0.069.9-.052,1.777t0.034,1.776a14.811,14.811,0,0,0,.155,1.9,5.253,5.253,0,0,0,.543,1.7,4.112,4.112,0,0,0,1.136,1.334,4.561,4.561,0,0,0,1.955.806,2.126,2.126,0,0,0,1.2-.095,3.357,3.357,0,0,0,1.343-.9,5.124,5.124,0,0,0,.844-1.327,4.828,4.828,0,0,0,.258-1.027q0.1-.647.172-1.358t0.095-1.374q0.026-.663.043-1.058a0.671,0.671,0,0,0,.026-0.095,0.839,0.839,0,0,0,.008-0.126v-1.137a1.509,1.509,0,0,0-.017-0.222v-0.884a1.5,1.5,0,0,1-.017-0.221V173.1a0.441,0.441,0,0,0-.258-0.49,1.363,1.363,0,0,0-.465-0.063q-0.776.016-1.55,0.055t-1.55.1a0.717,0.717,0,0,0-.456.11,0.57,0.57,0,0,0-.146.411c0,0.095,0,.192-0.009.292s-0.014.2-.026,0.292q-0.017.443-.026,0.885t0.026,0.884a1.062,1.062,0,0,0,.147.537,0.31,0.31,0,0,0,.353.079,0.186,0.186,0,0,1,.077-0.015,0.349,0.349,0,0,0,.095-0.016l0.482-.048,0.1-.023a0.271,0.271,0,0,1,.069-0.008h0.431Zm16.5-13.741c-0.252,0-.511.006-0.775,0.016a1.578,1.578,0,0,0-.378.047,1.1,1.1,0,0,0-.491.174,0.648,0.648,0,0,0-.164.427q-0.069.552-.086,1.113a9.29,9.29,0,0,0,.035,1.129,0.438,0.438,0,0,0,.12.3,0.693,0.693,0,0,0,.327.142,0.438,0.438,0,0,0,.155.032,0.591,0.591,0,0,1,.138.016,0.88,0.88,0,0,1,.473.229,0.7,0.7,0,0,1,.13.466l0.034,0.142v0.079q0.086,1.2.155,2.385t0.052,2.385q-0.035,1.642-.035,3.269t0.035,3.269c0.011,0.179.026,0.361,0.043,0.545a2.084,2.084,0,0,1-.026.561,0.743,0.743,0,0,1-.129.347,0.666,0.666,0,0,1-.37.111,1.012,1.012,0,0,1-.173.016h-0.172a0.4,0.4,0,0,0-.4.315,0.935,0.935,0,0,0-.051.316c-0.024.39-.029,0.777-0.018,1.161s0.029,0.772.052,1.161a0.523,0.523,0,0,0,.5.5q0.276,0.048.551,0.079a2.417,2.417,0,0,0,.551,0q0.292-.032.586-0.047c0.195-.011.39-0.026,0.585-0.047q0.758-.048,1.481-0.143a0.913,0.913,0,0,0,.551-0.205,0.848,0.848,0,0,0,.189-0.521V182.02l0.018-.205V181.72a6.269,6.269,0,0,1,.051-0.805,4.681,4.681,0,0,0,.035-0.806,0.545,0.545,0,0,0-.62-0.568c-0.069,0-.138,0-0.207.007a1.073,1.073,0,0,1-.224-0.007,0.564,0.564,0,0,1-.267-0.056,0.465,0.465,0,0,1-.06-0.244q-0.034-.459-0.051-0.9t-0.018-.9q-0.016-1.531.009-3.04t0.112-3.041q0.069-1.357.086-2.692t0.017-2.693a0.226,0.226,0,0,1,.241-0.285,1.062,1.062,0,0,0,.551-0.142,0.566,0.566,0,0,0,.276-0.458q0.051-.537.051-1.066v-1.066a0.425,0.425,0,0,0-.361-0.442c-0.069-.021-0.141-0.04-0.215-0.055s-0.153-.034-0.233-0.056a4.922,4.922,0,0,0-.947-0.063q-0.465.017-.947,0H655.75ZM673.9,176.682q-0.052,1.217-.086,2.416-0.018.664-.018,1.3v1.3a1.24,1.24,0,0,0,.31.932,1.523,1.523,0,0,0,1.016.237q0.4-.017.775-0.055t0.758-.1a0.855,0.855,0,0,0,.439-0.15,0.806,0.806,0,0,0,.18-0.4,2.555,2.555,0,0,0,.078-0.56c0.006-.195.009-0.387,0.009-0.577q0.016-2.243-.018-4.454t-0.137-4.453q-0.069-1.375-.112-2.733t-0.181-2.732a0.494,0.494,0,0,1,.017-0.316,0.768,0.768,0,0,1,.31-0.142,5.574,5.574,0,0,1,.87-0.213c0.292-.048.588-0.082,0.886-0.1a0.743,0.743,0,0,0,.379-0.118,0.409,0.409,0,0,0,.1-0.324q0-.68-0.008-1.343t-0.026-1.342a0.469,0.469,0,0,0-.465-0.474,4.466,4.466,0,0,0-.809-0.079q-1.378.017-2.738,0.055t-2.72.1c-0.1.011-.2,0.018-0.3,0.024a2.036,2.036,0,0,0-.3.039,0.561,0.561,0,0,0-.345.127,0.637,0.637,0,0,0-.12.331c-0.012.106-.02,0.205-0.026,0.3s-0.014.195-.026,0.3q-0.035.442-.043,0.877a6.782,6.782,0,0,0,.043.892,0.66,0.66,0,0,0,.241.529,0.943,0.943,0,0,0,.62.087l0.379-.063c0.126-.021.252-0.037,0.379-0.047a0.643,0.643,0,0,1,.361.023,0.607,0.607,0,0,1,.173.293,1.377,1.377,0,0,1,.1.418c0.011,0.142.023,0.287,0.034,0.434q0.087,1.391.069,2.78t0.035,2.78c0.023,0.305.031,0.6,0.026,0.892s-0.009.556-.009,0.8Q673.95,175.466,673.9,176.682Zm26.034-2.369v-7.565a5.624,5.624,0,0,0-.232-1.627,4.236,4.236,0,0,0-.784-1.453,4.136,4.136,0,0,0-1.343-1.145,3.286,3.286,0,0,0-1.446-.324,4.907,4.907,0,0,0-1.223.15,2.377,2.377,0,0,0-1.033.561,4.886,4.886,0,0,0-1.274,1.9,6.343,6.343,0,0,0-.4,2.211q-0.034,1.864-.017,3.7t0.051,3.7q0.035,1.3.1,2.583t0.2,2.566a4.78,4.78,0,0,1-.017,1.074,6.207,6.207,0,0,0-.069.924q0,0.466.034,0.924a0.4,0.4,0,0,0,.1.308,0.686,0.686,0,0,0,.361.039l0.62-.031,0.637-.032a1.033,1.033,0,0,0,.706-0.213,1.1,1.1,0,0,0,.155-0.687,2.964,2.964,0,0,1-.017-0.308,2.532,2.532,0,0,0-.017-0.292l-0.069-1.232q-0.138-1.437-.181-2.882t-0.077-2.883a0.485,0.485,0,0,1,.043-0.268,0.565,0.565,0,0,1,.318-0.048c0.345-.01.686-0.015,1.025-0.015h1.007a0.922,0.922,0,0,1,.327.031,0.449,0.449,0,0,1,.052.3v1.287q0,0.483-.017.972v3.885c-0.012.327-.018,0.65-0.018,0.971v0.972a0.545,0.545,0,0,0,.1.4,0.676,0.676,0,0,0,.43.094c0.23,0.011.459,0.013,0.689,0.008s0.459-.008.689-0.008a0.714,0.714,0,0,0,.447-0.094,0.625,0.625,0,0,0,.121-0.411q0.051-.711.052-1.453v-6.586h-0.035Zm-2.411-3.917a0.4,0.4,0,0,1-.043.253,0.806,0.806,0,0,1-.266.063l-1.068.063-1.068.063a0.624,0.624,0,0,1-.31-0.023,0.464,0.464,0,0,1-.034-0.308c0.011-.285.032-0.65,0.06-1.1s0.075-.908.138-1.382,0.14-.921.232-1.343a2.833,2.833,0,0,1,.362-0.963,0.474,0.474,0,0,1,.2-0.229,0.547,0.547,0,0,1,.319-0.024,1.243,1.243,0,0,1,.981.7,2.1,2.1,0,0,1,.241.711c0.035,0.242.063,0.49,0.086,0.742,0.035,0.306.066,0.606,0.1,0.9s0.054,0.595.077,0.9V170.4Zm16.324,3.9q0.033,0.774.034,1.564v0.805l0.034,1.627q0,1.026.009,2.029t-0.026,2.03a0.393,0.393,0,0,0,.052.292,0.531,0.531,0,0,0,.293.1c0.08,0.01.16,0.018,0.241,0.023a1.217,1.217,0,0,0,.241-0.007,7.891,7.891,0,0,1,1.11-.048q0.56,0.016,1.111.048,0.981,0.03,1.963.023t1.963-.008a2.381,2.381,0,0,0,.3-0.015,0.354,0.354,0,0,0,.172-0.064,0.231,0.231,0,0,0,.078-0.15c0.011-.068.023-0.16,0.034-0.276,0.023-.369.035-0.737,0.035-1.106s-0.006-.737-0.018-1.1a0.548,0.548,0,0,0-.094-0.387,0.777,0.777,0,0,0-.439-0.1h-0.224a15.863,15.863,0,0,1-2,.032,17.982,17.982,0,0,0-2,.016,0.606,0.606,0,0,1-.353-0.04,0.566,0.566,0,0,1-.077-0.324,3.083,3.083,0,0,1-.026-0.521c0-.168.008-0.342,0.008-0.521l0.035-.411q0-3.663.052-7.273t0.137-7.273a0.879,0.879,0,0,0-.146-0.576,0.853,0.853,0,0,0-.577-0.2c-0.23-.021-0.459-0.034-0.689-0.039a6.084,6.084,0,0,0-.688.024,1.227,1.227,0,0,0-.508.1,0.683,0.683,0,0,0-.13.435,0.368,0.368,0,0,1-.017.126c-0.011.39-.023,0.776-0.034,1.161s-0.029.771-.052,1.161q-0.051,1.832.017,3.648t0.1,3.648C713.8,173.265,713.822,173.781,713.846,174.3Zm34.118,4.485a4.16,4.16,0,0,0,.078.711,5.844,5.844,0,0,0,.275,1.1,3.962,3.962,0,0,0,.534,1,3.542,3.542,0,0,0,.525.6,2.722,2.722,0,0,0,.577.4,3.624,3.624,0,0,0,.68.26c0.247,0.069.519,0.129,0.818,0.182a4.38,4.38,0,0,0,2.006-.2A3.382,3.382,0,0,0,755,181.641a6,6,0,0,0,.852-1.713,8.623,8.623,0,0,0,.319-1.872,14.667,14.667,0,0,0,0-1.729,11.014,11.014,0,0,0-.241-1.714,4.6,4.6,0,0,0-.379-1.106,10.564,10.564,0,0,0-.585-1.026,4.157,4.157,0,0,0-.646-0.766,2.6,2.6,0,0,0-.87-0.514,6.608,6.608,0,0,1-.732-0.307,4.787,4.787,0,0,1-.7-0.419,2.936,2.936,0,0,1-.568-0.537,1.844,1.844,0,0,1-.344-0.663,6.917,6.917,0,0,1-.2-1.019,4.572,4.572,0,0,1-.009-1.019,3.015,3.015,0,0,1,.077-0.418,2.153,2.153,0,0,1,.173-0.466,1.287,1.287,0,0,1,.284-0.379,0.589,0.589,0,0,1,.413-0.158,0.407,0.407,0,0,1,.319.15,1.391,1.391,0,0,1,.215.347,3.278,3.278,0,0,1,.146.411,2.742,2.742,0,0,1,.078.34c0.057,0.294.114,0.587,0.172,0.876s0.109,0.582.155,0.877a0.439,0.439,0,0,0,.094.189,0.229,0.229,0,0,0,.216.032,7.329,7.329,0,0,1,.9-0.071q0.456-.009.9-0.04a1.024,1.024,0,0,0,.146-0.008c0.04-.005.089-0.013,0.146-0.023a0.726,0.726,0,0,0,.362-0.174,0.5,0.5,0,0,0,.1-0.348,8.092,8.092,0,0,0-.163-2.084,7.845,7.845,0,0,0-.715-1.975,4.574,4.574,0,0,0-.508-0.789,3.78,3.78,0,0,0-.689-0.672,3.381,3.381,0,0,0-.852-0.465,2.827,2.827,0,0,0-1-.174,3.4,3.4,0,0,0-1.36.253,3.188,3.188,0,0,0-1.016.687,3.976,3.976,0,0,0-.723,1.01,6.4,6.4,0,0,0-.465,1.209,9.651,9.651,0,0,0-.37,2.914,18.815,18.815,0,0,0,.318,2.913,2.631,2.631,0,0,0,.681,1.414,3.409,3.409,0,0,0,1.437.877l0.569,0.189,0.637,0.237a1.778,1.778,0,0,1,.912.853,3.967,3.967,0,0,1,.293,1.026c0.034,0.3.063,0.588,0.086,0.877a4.519,4.519,0,0,1-.017.877q-0.053.363-.1,0.726a1.96,1.96,0,0,1-.241.7,0.591,0.591,0,0,1-.5.363,0.451,0.451,0,0,1-.3-0.11,1.153,1.153,0,0,1-.224-0.261,1.967,1.967,0,0,1-.164-0.324,2.774,2.774,0,0,1-.1-0.3,5.65,5.65,0,0,1-.12-0.766c-0.024-.258-0.046-0.513-0.069-0.766a0.588,0.588,0,0,0-.069-0.284,0.572,0.572,0,0,0-.293-0.111,1.418,1.418,0,0,0-.422-0.031c-0.143.01-.284,0.026-0.422,0.047-0.252.042-.5,0.085-0.74,0.127s-0.488.079-.74,0.11a1.183,1.183,0,0,0-.3.063,0.432,0.432,0,0,0-.112.253,1.69,1.69,0,0,0-.051.537c0.011,0.179.023,0.342,0.034,0.49C747.944,178.283,747.958,178.54,747.964,178.782Zm21.084-3.435q0.086,1.446.121,2.93,0.035,0.822.043,1.635t0.026,1.634c0.011,0.137.019,0.269,0.025,0.4a1.966,1.966,0,0,0,.061.4,0.6,0.6,0,0,0,.568.5,4.894,4.894,0,0,0,.551.064,5.379,5.379,0,0,0,.568,0,1.207,1.207,0,0,0,.749-0.245,0.944,0.944,0,0,0,.25-0.687q0.034-.743,0-1.5-0.087-1.389-.155-2.748t-0.138-2.748a1.915,1.915,0,0,1-.009-0.3q0.009-.142.009-0.3a0.253,0.253,0,0,1,.207-0.253,4.262,4.262,0,0,1,.723-0.094,3.52,3.52,0,0,1,.74.047,0.2,0.2,0,0,1,.19.158c0.011,0.074.023,0.142,0.034,0.2a1.109,1.109,0,0,1,.017.19q0.087,1.611.1,3.222l0.051,2.416c0,0.211,0,.413.009,0.608s0.009,0.4.009,0.608c0.011,0.127.022,0.253,0.034,0.379a3.356,3.356,0,0,0,.052.364,0.569,0.569,0,0,0,.62.537,6.865,6.865,0,0,0,.714.023,5.954,5.954,0,0,0,.7-0.055,0.682,0.682,0,0,0,.353-0.119,0.88,0.88,0,0,0,.242-0.252,1.123,1.123,0,0,0,.137-0.332,2.843,2.843,0,0,0,.061-0.339q0.137-.711.223-1.43t0.121-1.461q0.051-1.311.1-2.6t0.017-2.6q-0.034-1.137-.06-2.266t-0.008-2.267q0.033-1.515.034-3t0.034-2.986a0.611,0.611,0,0,0-.792-0.726,3.164,3.164,0,0,0-.318.016l-0.319.031-0.654.079a1.806,1.806,0,0,0-.362.056,0.6,0.6,0,0,0-.223.11,0.434,0.434,0,0,0-.13.19c-0.028.079-.06,0.187-0.094,0.323a0.83,0.83,0,0,0-.035.206q-0.207,1.437-.292,2.874a24.038,24.038,0,0,0,0,2.891c0.011,0.168.017,0.334,0.017,0.5v0.5a0.543,0.543,0,0,1-.052.3,0.708,0.708,0,0,1-.327.126l-0.62.095a4.336,4.336,0,0,1-.542.047,0.45,0.45,0,0,1-.293-0.079,0.393,0.393,0,0,1-.121-0.253,3.746,3.746,0,0,1-.025-0.5q-0.036-1.058.034-2.108t0.1-2.109q0.035-.663.009-1.3t-0.078-1.287a0.791,0.791,0,0,0-.206-0.553,1.1,1.1,0,0,0-.6-0.174c-0.172-.01-0.344-0.018-0.516-0.023s-0.345-.019-0.517-0.04h-0.43a0.813,0.813,0,0,0-.431.134,0.576,0.576,0,0,0-.155.372,2.186,2.186,0,0,0-.008.331c0,0.106.008,0.216,0.008,0.332q0.017,0.505.026,1.019t-0.026,1.034q-0.138,1.738-.215,3.467t-0.026,3.5Q768.962,173.9,769.048,175.347Zm29.2-5.259q0-.972-0.017-1.951,0-.741-0.052-1.595a8.108,8.108,0,0,0-.275-1.666,5.763,5.763,0,0,0-.655-1.508,3.362,3.362,0,0,0-1.188-1.137,2.409,2.409,0,0,0-1.636-.316,2.691,2.691,0,0,0-1.067.363,3.961,3.961,0,0,0-.844.7,5.1,5.1,0,0,0-.835,1.184,7.163,7.163,0,0,0-.508,1.319,11.641,11.641,0,0,0-.293,1.39q-0.1.7-.155,1.4a24,24,0,0,0-.077,2.795q0.042,1.391-.043,2.8-0.069.9-.052,1.777t0.035,1.776a14.437,14.437,0,0,0,.155,1.888,5.449,5.449,0,0,0,.533,1.7,3.911,3.911,0,0,0,1.128,1.334,4.771,4.771,0,0,0,1.955.814,2.37,2.37,0,0,0,.447.047,2.31,2.31,0,0,0,.99-0.213,3.3,3.3,0,0,0,.836-0.561,4.654,4.654,0,0,0,.671-0.766,4.48,4.48,0,0,0,.465-0.829,2.367,2.367,0,0,0,.189-0.624c0.035-.216.069-0.429,0.1-0.64q0.189-1.374.241-2.732t0.069-2.732q0-.506-0.026-1.027c-0.017-.347-0.032-0.689-0.043-1.026Q798.251,171.06,798.251,170.088Zm-2.634,4.77q0.033,1-.018,2-0.017.346-.06,0.687a3.142,3.142,0,0,1-.163.671,3.361,3.361,0,0,1-.138.316,1.767,1.767,0,0,1-.215.331,1.2,1.2,0,0,1-.293.261,0.648,0.648,0,0,1-.353.1,0.6,0.6,0,0,1-.456-0.214,1.982,1.982,0,0,1-.336-0.5,3.6,3.6,0,0,1-.224-0.584c-0.058-.2-0.1-0.358-0.121-0.474a19.9,19.9,0,0,1-.232-2.4q-0.043-1.2.026-2.432,0.035-.774.06-1.532t0.078-1.532a1.943,1.943,0,0,0,.017-0.253v-0.252l0.051-1c0.012-.19.023-0.372,0.035-0.545a1.988,1.988,0,0,1,.1-0.5,1.377,1.377,0,0,1,.241-0.442,1.88,1.88,0,0,1,.456-0.4,0.8,0.8,0,0,1,.361-0.126,0.559,0.559,0,0,1,.431.284,2.212,2.212,0,0,1,.284.7,8.743,8.743,0,0,1,.181.932c0.046,0.326.077,0.645,0.1,0.955s0.031,0.566.043,0.766q0.034,0.805.077,1.58a13.062,13.062,0,0,1,.009,1.421Q795.583,173.855,795.617,174.858ZM814.1,162.412a0.782,0.782,0,0,0-.371-0.023,2.063,2.063,0,0,1-.318.039c-0.109,0-.215.013-0.319,0.024l-0.654.047a0.886,0.886,0,0,0-.4.071,0.538,0.538,0,0,0-.052.371q0.069,0.98.043,1.943t-0.026,1.958q0,3,.035,5.97t-0.017,5.97q-0.034.9-.035,1.777v1.761a0.627,0.627,0,0,0,.129.474,0.914,0.914,0,0,0,.526.126,4.418,4.418,0,0,0,.7-0.023q0.353-.04.714-0.1a0.792,0.792,0,0,0,.388-0.134,0.625,0.625,0,0,0,.129-0.371,4.154,4.154,0,0,0,.034-0.529v-0.529q0-.348-0.008-0.68t-0.009-.679l-0.034-2.7c0-.222,0-0.445-0.009-0.672s-0.008-.45-0.008-0.671,0.008-.46.025-0.687,0.032-.455.043-0.687a1.476,1.476,0,0,1,.043-0.174c0.018-.052.078-0.057,0.181-0.016a0.8,0.8,0,0,0,.336.079c0.109,0,.227.006,0.353,0.016a3.85,3.85,0,0,0,1.24-.071,3.689,3.689,0,0,0,1.076-.426,3.148,3.148,0,0,0,.852-0.743,3.245,3.245,0,0,0,.551-1.018,4.751,4.751,0,0,0,.241-0.956q0.069-.482.1-0.971a31.268,31.268,0,0,0,0-3.269,5.347,5.347,0,0,0-.457-1.951,9.072,9.072,0,0,0-1.076-1.714,2.565,2.565,0,0,0-1.059-.837,3.252,3.252,0,0,0-1.386-.221,1.43,1.43,0,0,0-.646.15,4.663,4.663,0,0,0-.611.371A0.438,0.438,0,0,0,814.1,162.412Zm2.393,7.044q0.009,0.309-.009.624a1.2,1.2,0,0,1-.06.34,1.652,1.652,0,0,1-.172.379,1.228,1.228,0,0,1-.267.308,0.532,0.532,0,0,1-.344.126,0.5,0.5,0,0,1-.362-0.15,1.562,1.562,0,0,1-.267-0.347,1.785,1.785,0,0,1-.172-0.419,1.442,1.442,0,0,1-.06-0.363q-0.053-.711-0.043-1.414t0.043-1.413a1.323,1.323,0,0,1,.06-0.364,1.594,1.594,0,0,1,.172-0.387,1.143,1.143,0,0,1,.276-0.307,0.585,0.585,0,0,1,.37-0.127,0.6,0.6,0,0,1,.551.442,2.833,2.833,0,0,1,.189.68c0.035,0.231.063,0.468,0.086,0.71a5.217,5.217,0,0,1,.009.529c-0.006.174-.009,0.351-0.009,0.529Q816.485,169.149,816.494,169.456Zm17.752-4.09c-0.006-.184,0-0.366.009-0.545q0.035-.458.026-0.908a7.029,7.029,0,0,0-.078-0.908,0.75,0.75,0,0,0-.155-0.435,0.8,0.8,0,0,0-.5-0.055q-0.327.017-.637,0.016a6.13,6.13,0,0,1-.62-0.032,0.678,0.678,0,0,0-.439.048,0.582,0.582,0,0,0-.112.394q-0.034,1.09-.077,2.164t-0.078,2.164q-0.034.869-.026,1.721t0.043,1.722l0.052,2.306c0.023,0.568.037,1.14,0.043,1.713s0,1.151-.026,1.73a0.71,0.71,0,0,0,.138.521,0.966,0.966,0,0,0,.534.253,2.837,2.837,0,0,0,.628.087q0.319,0.007.646,0.007c0.207,0,.364,0,0.473-0.007a0.386,0.386,0,0,0,.242-0.079,0.344,0.344,0,0,0,.094-0.222,3.753,3.753,0,0,0,.017-0.418q0.018-2.18,0-4.343v-2.132c0-.232,0-0.469-0.017-0.711q-0.051-.885-0.12-1.745a17.411,17.411,0,0,1-.052-1.746C834.255,165.737,834.252,165.55,834.246,165.366Zm-0.008,14.6a0.6,0.6,0,0,0-.078-0.419,0.907,0.907,0,0,0-.422-0.181,2.392,2.392,0,0,0-.568-0.063,4.229,4.229,0,0,0-.439.023c-0.143.016-.29,0.035-0.439,0.056a0.762,0.762,0,0,0-.465.181,0.87,0.87,0,0,0-.155.482,6.829,6.829,0,0,0,.017,1.082c0.035,0.353.069,0.708,0.1,1.066a0.7,0.7,0,0,0,.129.4,0.81,0.81,0,0,0,.422.142q0.292,0.032.594,0.039c0.2,0.006.4,0.008,0.611,0.008a0.759,0.759,0,0,0,.456-0.118,0.677,0.677,0,0,0,.147-0.419q0.034-.395.06-0.781t0.026-.8v-0.695Z" transform="translate(-273.217 -38.586)"/>
  </g>
</svg>
